<svg enable-background="new 0 0 100 100" height="100" viewBox="0 0 100 100" width="100" xmlns="http://www.w3.org/2000/svg"><path d="m68.769 23.56c-6.812 0-13.023 2.562-17.727 6.771-4.704-4.209-10.914-6.771-17.725-6.771s-13.021 2.562-17.725 6.771v1.188 5.333 26.586 5.611.912c.045.04.092.085.141.126 1.137 1.005 2.36 1.912 3.656 2.71 1.306-1.057 2.734-1.966 4.26-2.71 2.922-1.416 6.203-2.214 9.668-2.214s6.747.796 9.666 2.214c1.528.744 2.952 1.653 4.262 2.71.252.207.505.419.751.637 1.123.995 2.142 2.098 3.046 3.298.903-1.2 1.924-2.308 3.047-3.298.244-.218.497-.43.749-.637 1.307-1.057 2.736-1.966 4.263-2.71 2.923-1.416 6.201-2.214 9.668-2.214 3.465 0 6.744.796 9.666 2.214 1.525.744 2.954 1.653 4.26 2.71 1.298-.798 2.519-1.705 3.656-2.71.047-.041.094-.086.141-.126v-.912-5.611-26.587-5.329-1.192c-4.703-4.209-10.914-6.77-17.723-6.77zm-35.452 39.882c-4.844 0-9.383 1.294-13.293 3.56v-34.58c3.703-2.783 8.305-4.431 13.293-4.431 4.989 0 9.591 1.652 13.293 4.431v34.58c-3.91-2.266-8.451-3.56-13.293-3.56zm35.452 0c-4.845 0-9.386 1.294-13.296 3.56v-34.58c3.703-2.779 8.305-4.431 13.296-4.431 4.986 0 9.593 1.648 13.291 4.431v34.58c-3.911-2.266-8.45-3.56-13.291-3.56z" fill="#fff"/></svg>