<svg enable-background="new 0 0 100 100" height="100" viewBox="0 0 100 100" width="100" xmlns="http://www.w3.org/2000/svg"><path d="m73.359 56.137h-4.131v-6.572-6.385h4.131c.244.905.438 1.832.582 2.776h13.053c-.094-.935-.21-1.863-.369-2.776-.812-4.672-2.482-9.047-4.846-12.958h-12.55v-2.519c.537-.159 1.099-.319 1.321-.363l1.188-.239v-8.087l-.643-.442c-4.73-3.258-10.232-5.412-15.908-6.229l-1.694-.243v13.035l1.19.239c.539.109 1.073.234 1.586.375v4.472h-12.955v-4.471c.511-.141 1.046-.266 1.586-.375l1.189-.239v-13.035l-1.69.243c-5.677.816-11.18 2.97-15.913 6.229l-.638.442v8.087l1.188.239c.222.044.78.205 1.319.363v2.519h-13.049c-2.362 3.911-4.033 8.286-4.843 12.958-.366 2.104-.557 4.269-.557 6.479 0 2.209.19 4.373.557 6.479.811 4.672 2.482 9.045 4.843 12.955h13.051v12.684l.746.428c5.662 3.251 12.124 4.969 18.692 4.969 6.562 0 13.029-1.718 18.691-4.969l.742-.428v-12.685h12.551c2.363-3.909 4.033-8.284 4.846-12.956.157-.914.275-1.84.369-2.777h-13.053c-.143.943-.337 1.87-.582 2.777m-18.384-32.213v-10.116c5.614.808 10.813 2.905 15.283 5.984v6.096c-.458.091-1.734.48-2.51.71v3.624 12.958 6.385 6.572h-9.997v-6.572-6.385-12.958-5.606l-1.092-.295c-.55-.151-1.113-.284-1.684-.397m1.296 19.256v6.385 6.572h-6.822-6.134v-6.572-2.018-4.367zm-12.957 25.913h6.134 6.821v4.287c-2.113.572-4.293.866-6.477.866-2.185 0-4.365-.294-6.479-.866v-4.287zm-13.987-43.205v-6.096c4.471-3.079 9.668-5.177 15.283-5.984v10.116c-.57.113-1.134.247-1.683.396l-1.093.295v5.606h-7.492-2.502v-3.624c-.778-.228-2.055-.618-2.513-.709m1.029 21.659v2.018 6.572h-4.63c-.559-2.064-.864-4.234-.864-6.479s.306-4.415.864-6.479h4.63zm37.392 33.372c-5.289 3.037-11.419 4.772-17.954 4.772-6.536 0-12.666-1.735-17.955-4.772v-11.826-12.956-6.572-2.018-2.356-2.011h9.995v4.367 2.018 6.572 12.956 5.418l1.093.3c2.239.605 4.55.916 6.867.916 2.313 0 4.623-.311 6.865-.916l1.092-.3v-5.418h6.994 3.003z" fill="#fff"/></svg>