<?xml version="1.0" encoding="utf-8"?>
<!-- Generator: Adobe Illustrator 15.1.0, SVG Export Plug-In . SVG Version: 6.00 Build 0)  -->
<!DOCTYPE svg PUBLIC "-//W3C//DTD SVG 1.1//EN" "http://www.w3.org/Graphics/SVG/1.1/DTD/svg11.dtd">
<svg version="1.1" id="Layer_1" xmlns="http://www.w3.org/2000/svg" xmlns:xlink="http://www.w3.org/1999/xlink" x="0px" y="0px"
	 width="100px" height="100px" viewBox="0 0 100 100" enable-background="new 0 0 100 100" xml:space="preserve">
<g display="none">
	<path display="inline" fill="#FFFFFF" d="M32.395,49.813V26.856c-0.775-0.23-2.053-0.62-2.51-0.709v-6.095
		c4.469-3.078,9.666-5.174,15.278-5.981v10.112c-0.571,0.114-1.133,0.248-1.683,0.396l-1.092,0.295v24.94"/>
	<path display="inline" fill="#ECE9DD" d="M63.777,56.384H26.286c-0.56-2.063-0.864-4.233-0.864-6.476
		c0-2.243,0.304-4.412,0.864-6.476h47.616c0.244,0.905,0.438,1.832,0.582,2.775h13.05c-0.095-0.934-0.214-1.863-0.371-2.775
		c-0.812-4.67-2.479-9.044-4.841-12.954H65.29H34.898H17.867c-2.362,3.91-4.031,8.284-4.841,12.954
		c-0.366,2.104-0.557,4.268-0.557,6.476s0.19,4.373,0.557,6.476c0.811,4.671,2.481,9.044,4.841,12.954h17.032h28.928"/>
	<path display="inline" fill="#FFFFFF" d="M42.388,47.797v26.957l1.092,0.298c2.239,0.607,4.548,0.915,6.864,0.915
		c2.313,0,4.623-0.308,6.864-0.915l1.091-0.298v-24.94v-24.94l-1.091-0.295c-0.551-0.148-1.112-0.283-1.685-0.396V14.07
		c5.613,0.807,10.81,2.903,15.276,5.981v6.095c-0.458,0.09-1.731,0.479-2.509,0.709v22.958v31.344
		c-5.288,3.036-11.416,4.772-17.949,4.772c-6.534,0-12.662-1.736-17.949-4.772V45.442"/>
	<path display="inline" fill="#ECE9DD" d="M49.999,69.338H65.29h17.03c2.363-3.91,4.031-8.283,4.842-12.954
		c0.158-0.913,0.277-1.84,0.371-2.774H74.482c-0.144,0.941-0.336,1.869-0.58,2.774H49.999"/>
</g>
<path fill="#FFFFFF" d="M73.359,56.137h-4.131v-6.572V43.18h4.131c0.244,0.905,0.438,1.832,0.582,2.776h13.053
	c-0.094-0.935-0.21-1.863-0.369-2.776c-0.812-4.672-2.482-9.047-4.846-12.958H69.229v-2.519c0.537-0.159,1.099-0.319,1.321-0.363
	l1.188-0.239v-8.087l-0.643-0.442c-4.73-3.258-10.232-5.412-15.908-6.229l-1.694-0.243v13.035l1.19,0.239
	c0.539,0.109,1.073,0.234,1.586,0.375v4.472H43.314V25.75c0.511-0.141,1.046-0.266,1.586-0.375l1.189-0.239V12.101l-1.69,0.243
	c-5.677,0.816-11.18,2.97-15.913,6.229l-0.638,0.442v8.087l1.188,0.239c0.222,0.044,0.78,0.205,1.319,0.363v2.519H17.306
	c-2.362,3.911-4.033,8.286-4.843,12.958c-0.366,2.104-0.557,4.269-0.557,6.479c0,2.209,0.19,4.373,0.557,6.479
	c0.811,4.672,2.482,9.045,4.843,12.955h13.051v12.684l0.746,0.428c5.662,3.251,12.124,4.969,18.692,4.969
	c6.562,0,13.029-1.718,18.691-4.969l0.742-0.428V69.093h12.551c2.363-3.909,4.033-8.284,4.846-12.956
	c0.157-0.914,0.275-1.84,0.369-2.777H73.941C73.798,54.303,73.604,55.23,73.359,56.137 M54.975,23.924V13.808
	c5.614,0.808,10.813,2.905,15.283,5.984v6.096c-0.458,0.091-1.734,0.48-2.51,0.71v3.624V43.18v6.385v6.572h-9.997v-6.572V43.18
	V30.222v-5.606l-1.092-0.295C56.109,24.17,55.546,24.037,54.975,23.924 M56.271,43.18v6.385v6.572h-6.822h-6.134v-6.572v-2.018
	V43.18H56.271z M43.314,69.093h6.134h6.821v4.287c-2.113,0.572-4.293,0.866-6.477,0.866c-2.185,0-4.365-0.294-6.479-0.866V69.093z
	 M29.327,25.888v-6.096c4.471-3.079,9.668-5.177,15.283-5.984v10.116c-0.57,0.113-1.134,0.247-1.683,0.396l-1.093,0.295v5.606
	h-7.492H31.84v-3.624C31.062,26.369,29.785,25.979,29.327,25.888 M30.356,47.547v2.018v6.572h-4.63
	c-0.559-2.064-0.864-4.234-0.864-6.479s0.306-4.415,0.864-6.479h4.63V47.547z M67.748,80.919
	c-5.289,3.037-11.419,4.772-17.954,4.772c-6.536,0-12.666-1.735-17.955-4.772V69.093V56.137v-6.572v-2.018v-2.356V43.18h9.995v4.367
	v2.018v6.572v12.956v5.418l1.093,0.3c2.239,0.605,4.55,0.916,6.867,0.916c2.313,0,4.623-0.311,6.865-0.916l1.092-0.3v-5.418h6.994
	h3.003V80.919z"/>
</svg>
