<svg xmlns="http://www.w3.org/2000/svg" viewBox="0 0 84.5 84.5">
	<path fill="#FFF" d="M34 84.6c1.5-31 7.6-68.4-7.9-75.2 1.5-.3 8 1.5 13 10.9 5.7-12.7 15.3-15.1 22-13.7-23.2 1.6-19.2 8.6-15.3 78h-11.8zm1.3-18.9c.2-2.7-3.8-7.8-11.9-11.2-8-3.4-14.8-7.4-14-11.8.7-4.1 3.9-6.2 3.9-6.2s-2.8 3.3-2.7 6.4c.2 4.1 6.6 7 12.4 8.8 5.8 1.8 14 7.3 14 7.3s-1.9 9.4-1.7 6.7zm-16.6-26.1s-.3-.9-1.1-.9-1.9 1.5-3 1.2c-1.2-.3-1.2-1.5-1.5-1.6-.4-.1-1.5.3-1.5.3s1-2.5 3.7-3.4c2-.6 3.3.1 3.7.6 1 1.1-.3 3.8-.3 3.8zm-1.9 5s3.9 3.3 6.1 1.5c2.4-2 1.5-3.9 2.8-5.4 1.4-1.5 2.5-2.1 5.6.1 3.1 2.2-1-2.1-1-2.1l-2.2-1.7s.7 1.5-.1 1.4c-.8-.1-2.8-1.9-5-.4s-2.1 3.7-3.6 5.3c-.7.8-2.6 1.3-2.6 1.3zm19.2 10.1c1.5-10.5-7.5-17.6-12.7-21.3-5.2-3.7-9.9-6.7-12.6-7.1 1.9-.1 3.3.5 3.3.2l-2.9-2.7s1 .4 1.3.4c.3-.1.5-2.1.5-2.1s2.1 4.4 3.7 4.4c.8 0 .2-2.6 1.4-3.4 1.3-.9 1.7-.5 2.4-.4-.7.3-1.7.7-1.8 1.8s.7 3.6 1.1 4.1c.4.5 9.5 5.7 11.5 6.9 2.1 1.3 3.6 3.6 3.9 3.5.3-.2 1.1-5.2 1.1-5.2l.7 12c.2 0 4.4 6.6-.9 8.9zm-20.3-4.4s-.4.5-.9.8c-.5.3-3.4 1.1-3.7 3.9-.3 2.8.8 5 1.7 6 0-1.1.1-1.7.5-2.5.5-1 2.2-1.8 2.8-3.3.5-1.5-.5-1.7-.4-2.4.2-1.3 2.2-1.1 2.2-1.1l-2.2-1.4zm14.6 7.7s-7.8-2.7-10.5 2.1c-2.8 4.9 1.4 9.2 4.8 9.9-1.1-1.3-2.5-2.5-2-4.5.9-3.2 2.7-1 3.7-3.2.9-1.8-1-1.7-.6-2.8.2-.5 1.5-2.8 7.5 1.6 6 4.5-2.9-3.1-2.9-3.1zm24.7 4.9s8.5-4.8 11.2.9c2.7 5.7-6 10.8-10.4 7.3 4.9 1.7 5.2-1.2 5.1-1.8-.1-.5-.6-1.3-1.3-1.7-.7-.3-2.1-.6-2-1.9.2-1.3 2-2.5 2.9-2.3 1 .2 1.1-.5 1-.7-.9-1.9-6.5.2-6.5.2zm-11.3 2.8s2.1 1.8 2.7 1.4 1.9-1.7 1.3-4.2c-.6-2.5-.5-4.8-.5-4.8s1.7 3.6 2.5 4.1c.8.5.9.7 1.3.3.5-.4 3-2.4 3.9-2.9.9-.5 5.3-2.9 7.2-4.8 1.8-1.8 2.2-2.6 1.8-4.3l-2.1-1.9c-.3-1.2.3-2.3.3-3.1.1-.7-.1-2.3-1.3-3.4 2.3-.4 6 .1 7.3 2.2 1.5 2.4.8 5.5-2.9 9.6-1.3 1.4-4.7 3.1-6.7 5.2-4.1 4.3-9.2 5.6-12.2 10.4-2.5 4-2.6-3.8-2.6-3.8zm-1-23c.3 2.3.7 3.3 1.1 3.4.4.1 1.8-2.3 3.5-3.9 1.6-1.5 4.3-1.9 9.7-5.4 2.3-1.5 6.5-3.7 10.7-8.2-1.2 2.1-3.1 5.6-5.3 6.9-2.9 1.7-10.7 6.7-13.8 10-3 3.4-5.4 7.6-5.1 13 .2 4.7-1.6-9.1-1.6-9.1s.5-9 .8-6.7zm.1-.3c-.1-6 5.4-14.8 6.5-16.5 1.5-2.5 9.1-10.7 15-8.3-5.2-3.3-11.8 1.7-15.4 4.9-2.6 2.4-4.7 7.2-5.4 6.8-.8-.3-.5-1.2-.5-1.2l-3.3 8.4s3.2 11.9 3.1 5.9zm5.7-30.1c2-2.5 6.8-4.2 8.1-2.4-1.7-.5-2.6 1-3.1 1.8-1.3 2-.5 2.7-.5 4.1 0 1.8-1.9 1.4-2.5 2.4-.4.6-.2 3 .4 2.5.6-.5.5.5.5.5l-1.8 1.8h-1.3s1.2-1.6 1-2.2c-.2-.6-1.8-.8-2.1-.9-.3 0-.8-.4-.8-1.5"/><path fill="#FFF" d="M51.5 42.9s1.9-.7 2.6 0c.8.7.8 1.2.8 1.5 0 .5-1.5 1.3-1.2 2.5.2.7.9.7 1.5.9.7.2 1 .6.8 1.4-.2.8-1.1 1.6-2.4 1.7-1.3.1-2.7.2-3.7-1.8.2 1.3 1.2 3 3.9 3.1 5.1.2 7-4.3 6.9-5.7-.1-1.2-.9-2.8-2.4-3.5-1.5-.8-3.9-.3-4.2-.5-.3-.2-.6-1.2 0-1.7h-1.7l-.9 2.1zm11.4-7.8s.6-.4.9-.4c.3 0 .7.2 1.1-.1.4-.2 1.1-.7 1.8-.5.7.3.7.9.5 1.2-.2.3-.4 1 0 1.3.3.3 1.5.1 1.9.9.4.7.9 2.6-1 4.4 3.8-1 5.4-7.1 2.6-8.9-2.8-1.8-4.7.7-5.1.5-.4-.1-.4-1-.4-1l-1.5.5-.8 2.1zm-18.3-2.3s-.5 3-.1 2.1c.4-.8 1.1-.9 1.3-.5.2.3 1 2.2 2.4 2.8 3 1.2 5.8-1.8 7.2-1.6-1.4-1.5-.4-2.6-1.6-3.6-3.2-2.5-7 1.3-7.6 1.1-.5-.2-.2-1.7-.2-1.7l-1.4 1.4zm4.6-8.5s-2.3 5-.4 2.3c2-2.6 4.9-4.1 5.5-4.1.6 0 1.3-.3 1.4.2.1.5-.8 1-.7 2 0 1.3 1.1 1.5 1.6 1.7.6.3 1.3 1.3 1.3 2.7 0 1.3-.1 2.1-1.8 2.7 5.2.3 7.1-7 4.2-9.6-3.1-2.8-6.3.3-6.5-.5-.3-.7.7-1.4.7-1.4l-1.5.5c-.1.1-3.8 3.5-3.8 3.5zm16.3 3.7c1.8-1 3.9-7 1.3-9.9-2.9-3.2-7.9-1.7-8.7-1.3 3.4-.7 6.2.8 6.2.8s-1.5 1.4-1.3 2.7c.2 1.4 1.8 1.8 2.5 2.5.7.6 1.7 2.4 0 5.2zm-6.7-21.4s.9.5 1 1 .4 1.5.3 2c-.1.4-.5 1.7-.1 2.6.6 1.3 3.2 1.2 4.5 1.2 1.4-.1 3.4.4 4.3 2.3 0 0-.1-5.6-3.6-7.7-3.4-2.1-6.4-1.4-6.4-1.4zm-25.5 6.4s-1.3-4.3 2.6-6.5c2.7-1.6 6-.3 7.3.9 1.7 1.6.4 4.8-.9 5.8.3-.9.2-2.2-.3-2.5-.8-.6-1.4-.5-1.8 0-.4.5-.7 1.5-1.7 1.6-1 .1-1.8-.7-2.3-.9-.6-.1-2.1-.5-1.9 2.4.2 2.6-1-.8-1-.8zm-1.4 0s-2.7-1.9-1.9-1c.7.9.2 1.6 0 1.7-.2.1-2.1 3.6-2.1 3.6s-2.9.9-2.9 3.2c0 1.4.7 1.7 1.5 2.1.4.3.9 1.2.9 2.1 0 2-1 2.8-2 2.8-1.2 0-3.7-1.7-1.4-5.4-1.4.7-2.4 4.8.3 5.9 2.7 1.1 5.5-.3 7.1-2.2 3.2-4-1.9-8.3-1.9-8.3s.1-3.5 1-3.5c1 0 1.3.6 1.6 1 .3.4-.2-2-.2-2zm-12.5 8.2c-1.2-1.1-3.8-5.4 1.8-9.9 4.2-3.5 7.7-1.4 7.7-1.4s2.4 3.5 1.5 2.5c-1-1-2.4-1.3-3.1-1.2-.6.1-1.3.8-1.3 1.2.2 1.1.2 2.1-.4 3-1 1.4-2.2.9-3.7.9-1.4 0-2.1.4-2.5 1.2-.6.9-.7 2 0 3.7zm-7 2.1s-5.3-1.2-2.8-7.7c2.1-5.3 6.2-5.7 9.3-6.2-1.5.7-2.7 1.9-3.4 2.9-.6 1-.6 2-.5 3 .1.9 0 3.5-1.4 4.6-1.4 1.1-1.7 1.7-1.6 2.1.1.4.4 1.3.4 1.3zm-2.7 2.8s-1.1.7-.5 1.7 1.8.6 1.9 2.2c.1 1.6-.6 1.9-1.1 2.6-.5.6-1.2 1.9-.7 2.7.5.8.9 1 1.4.7 0 .8-6.2 1.1-6.4-4-.1-5.2 5.4-5.9 5.4-5.9z"/>
</svg>