<?xml version="1.0" encoding="utf-8"?>
<!-- Generator: Adobe Illustrator 16.0.0, SVG Export Plug-In . SVG Version: 6.00 Build 0)  -->
<!DOCTYPE svg PUBLIC "-//W3C//DTD SVG 1.1//EN" "http://www.w3.org/Graphics/SVG/1.1/DTD/svg11.dtd">
<svg version="1.1" id="Layer_1" xmlns="http://www.w3.org/2000/svg" xmlns:xlink="http://www.w3.org/1999/xlink" x="0px" y="0px"
	 width="100px" height="100px" viewBox="0 0 100 100" enable-background="new 0 0 100 100" xml:space="preserve">
<g>
	<path fill="#FFFFFF" stroke="#FFFFFF" stroke-width="0.5" d="M54.541,18.476l-2.019,53.613h1.062c0,0,0.216,0.511-0.212,1.542
		c-0.427,1.027,0.212,0,1.062,1.027c0.85,1.029,0.85,1.542,1.489,2.571c0.639,1.032,0.639,1.032,1.484,1.542
		c0.854,0.516,1.062-0.256,1.705,1.032c0.635,1.283,1.059,1.542,0.635,2.569c-0.427,1.025-0.427,0.773-0.427,0.773h-15.3
		c0,0-0.745-0.773-0.745-1.29c0-0.511,0.745-2.439,1.274-2.698c0.533-0.256,1.811-0.643,2.234-1.155
		c0.427-0.515,2.335-3.471,3.08-3.731c0.745-0.254-0.211-1.542,0-2.183h1.167l-2.547-53.872h6.055V18.476z"/>
	<polygon fill="#FFFFFF" stroke="#FFFFFF" stroke-width="0.5" points="54.541,23.958 48.592,23.958 24.154,27.293 24.154,28.245 
		78.979,28.245 78.979,27.389 	"/>
	<g>
		<ellipse fill="#FFFFFF" stroke="#FFFFFF" stroke-width="0.5" cx="23.462" cy="27.861" rx="1.428" ry="1.727"/>
		<path fill="#FFFFFF" stroke="#FFFFFF" stroke-width="0.5" d="M22.412,30.302l-7.015,28.286h7.532V30.432h1.184v28.156h7.329
			l-6.905-28.156h0.533l8.5,28.027h0.529h3.186c-2.229,13.115-14.766,12.474-14.766,12.474C11.361,70.547,9.342,58.588,9.342,58.588
			h0.741h3.084l8.711-28.156L22.412,30.302z"/>
	</g>
	<g>
		<ellipse fill="#FFFFFF" stroke="#FFFFFF" stroke-width="0.5" cx="80.232" cy="28.08" rx="1.429" ry="1.727"/>
		<path fill="#FFFFFF" stroke="#FFFFFF" stroke-width="0.5" d="M79.183,30.523l-7.015,28.284h7.531V30.652h1.181v28.156h7.332
			l-6.905-28.156h0.533l8.496,28.03h0.533h3.19c-2.23,13.11-14.771,12.467-14.771,12.467c-11.157-0.382-13.176-12.341-13.176-12.341
			h0.744h3.081l8.712-28.156L79.183,30.523z"/>
	</g>
</g>
</svg>
