<?xml version="1.0" encoding="utf-8"?>
<!-- Generator: Adobe Illustrator 16.0.0, SVG Export Plug-In . SVG Version: 6.00 Build 0)  -->
<!DOCTYPE svg PUBLIC "-//W3C//DTD SVG 1.1//EN" "http://www.w3.org/Graphics/SVG/1.1/DTD/svg11.dtd">
<svg version="1.1" id="Layer_1" xmlns="http://www.w3.org/2000/svg" xmlns:xlink="http://www.w3.org/1999/xlink" x="0px" y="0px"
	 width="100px" height="100px" viewBox="0 0 100 100" enable-background="new 0 0 100 100" xml:space="preserve">
<path fill="#FFFFFF" d="M68.769,23.56c-6.812,0-13.023,2.562-17.727,6.771c-4.704-4.209-10.914-6.771-17.725-6.771
	s-13.021,2.562-17.725,6.771v1.188v5.333v26.586v5.611v0.912c0.045,0.04,0.092,0.085,0.141,0.126c1.137,1.005,2.36,1.912,3.656,2.71
	c1.306-1.057,2.734-1.966,4.26-2.71c2.922-1.416,6.203-2.214,9.668-2.214s6.747,0.796,9.666,2.214
	c1.528,0.744,2.952,1.653,4.262,2.71c0.252,0.207,0.505,0.419,0.751,0.637c1.123,0.995,2.142,2.098,3.046,3.298
	c0.903-1.2,1.924-2.308,3.047-3.298c0.244-0.218,0.497-0.43,0.749-0.637c1.307-1.057,2.736-1.966,4.263-2.71
	c2.923-1.416,6.201-2.214,9.668-2.214c3.465,0,6.744,0.796,9.666,2.214c1.525,0.744,2.954,1.653,4.26,2.71
	c1.298-0.798,2.519-1.705,3.656-2.71c0.047-0.041,0.094-0.086,0.141-0.126v-0.912v-5.611V36.851v-5.329v-1.192
	C81.789,26.121,75.578,23.56,68.769,23.56z M33.317,63.442c-4.844,0-9.383,1.294-13.293,3.56v-34.58
	c3.703-2.783,8.305-4.431,13.293-4.431c4.989,0,9.591,1.652,13.293,4.431v34.58C42.7,64.736,38.159,63.442,33.317,63.442z
	 M68.769,63.442c-4.845,0-9.386,1.294-13.296,3.56v-34.58c3.703-2.779,8.305-4.431,13.296-4.431c4.986,0,9.593,1.648,13.291,4.431
	v34.58C78.149,64.736,73.61,63.442,68.769,63.442z"/>
</svg>
