<svg enable-background="new 0 0 100 100" height="100" viewBox="0 0 100 100" width="100" xmlns="http://www.w3.org/2000/svg"><g fill="#fff" stroke="#fff" stroke-width=".5"><path d="m54.541 18.476-2.019 53.613h1.062s.216.511-.212 1.542c-.427 1.027.212 0 1.062 1.027.85 1.029.85 1.542 1.489 2.571.639 1.032.639 1.032 1.484 1.542.854.516 1.062-.256 1.705 1.032.635 1.283 1.059 1.542.635 2.569-.427 1.025-.427.773-.427.773h-15.3s-.745-.773-.745-1.29c0-.511.745-2.439 1.274-2.698.533-.256 1.811-.643 2.234-1.155.427-.515 2.335-3.471 3.08-3.731.745-.254-.211-1.542 0-2.183h1.167l-2.547-53.872h6.055v.26z"/><path d="m54.541 23.958h-5.949l-24.438 3.335v.952h54.825v-.856z"/><ellipse cx="23.462" cy="27.861" rx="1.428" ry="1.727"/><path d="m22.412 30.302-7.015 28.286h7.532v-28.156h1.184v28.156h7.329l-6.905-28.156h.533l8.5 28.027h.529 3.186c-2.229 13.115-14.766 12.474-14.766 12.474-11.158-.386-13.177-12.345-13.177-12.345h.741 3.084l8.711-28.156z"/><ellipse cx="80.232" cy="28.08" rx="1.429" ry="1.727"/><path d="m79.183 30.523-7.015 28.284h7.531v-28.155h1.181v28.156h7.332l-6.905-28.156h.533l8.496 28.03h.533 3.19c-2.23 13.11-14.771 12.467-14.771 12.467-11.157-.382-13.176-12.341-13.176-12.341h.744 3.081l8.712-28.156z"/></g></svg>