<svg xmlns="http://www.w3.org/2000/svg" viewBox="0 0 84.5 84.5">
	<path fill="#FFF" d="M65.2 33.2c0-13.8-11.2-25-25-25s-25 11.2-25 25c0 9.3 5 17.3 12.5 21.7v11.7l8.3 8.3h8.3l8.3-8.3v-11.7c7.6-4.4 12.6-12.4 12.6-21.7zm-18.7 33.3h-12.5c-1.1 0-2.1-.9-2.1-2.1 0-1.1.9-2.1 2.1-2.1h12.5c1.1 0 2.1.9 2.1 2.1 0 1.2-1 2.1-2.1 2.1zm2.1-14.2v-19.1c2.3 0 4.2-1.9 4.2-4.2s-1.9-4.2-4.2-4.2-4.2 1.9-4.2 4.2v24.6c-1.4.3-2.8.4-4.2.4s-2.8-.1-4.2-.4v-24.6c0-2.3-1.9-4.2-4.2-4.2s-4.2 1.9-4.2 4.2 1.9 4.2 4.2 4.2v19.1c-2.4-1-4.5-2.5-6.4-4.4-3.9-3.9-6.1-9.2-6.1-14.7s2.2-10.8 6.1-14.7c3.9-3.9 9.2-6.1 14.7-6.1 5.6 0 10.8 2.2 14.7 6.1 3.9 3.9 6.1 9.2 6.1 14.7 0 5.6-2.2 10.8-6.1 14.7-1.7 1.9-3.9 3.4-6.2 4.4z"/>
</svg>