<svg enable-background="new 0 0 100 100" height="100" viewBox="0 0 100 100" width="100" xmlns="http://www.w3.org/2000/svg"><path d="m76.23 48.917c8.205-7.845 12.189-15.529 9.538-20.121-1.514-2.621-4.979-3.872-9.706-3.872v3.772c3.312 0 5.721.745 6.438 1.985.57.985.255 2.497-.111 3.591-.7 2.098-2.226 4.608-4.405 7.261-1.324 1.611-2.85 3.231-4.551 4.847-2.34-2.021-4.942-4.031-7.764-5.978-.277-3.422-.714-6.675-1.294-9.713 4.417-1.31 8.427-1.994 11.687-1.994l.004-3.772h-.004c-3.553 0-7.812.708-12.488 2.073-2.691-11.025-7.352-18.321-12.657-18.321-5.302 0-9.965 7.295-12.657 18.32-4.675-1.365-8.936-2.073-12.488-2.073-4.726 0-8.195 1.249-9.708 3.872-2.653 4.592 1.331 12.276 9.538 20.121-8.207 7.847-12.19 15.532-9.538 20.124 1.514 2.618 4.98 3.871 9.708 3.871 3.552 0 7.812-.708 12.488-2.075 2.692 11.031 7.355 18.327 12.657 18.327 5.304 0 9.965-7.296 12.657-18.32 4.676 1.365 8.936 2.073 12.488 2.073 4.728 0 8.194-1.252 9.708-3.872 2.65-4.594-1.334-12.278-9.54-20.126zm-5.621 0c-1.465 1.25-3.023 2.484-4.665 3.693.043-1.213.065-2.446.065-3.693 0-1.245-.022-2.48-.063-3.69 1.644 1.207 3.202 2.443 4.663 3.69zm-9.844 17.048c-1.812-.643-3.66-1.377-5.523-2.191 1.072-.571 2.144-1.166 3.221-1.784 1.078-.625 2.134-1.257 3.165-1.904-.225 2.025-.512 3.988-.863 5.879zm-4.19-7.245c-1.867 1.078-3.762 2.092-5.658 3.035-1.896-.939-3.79-1.957-5.658-3.035-1.884-1.088-3.711-2.22-5.463-3.381-.13-2.1-.197-4.242-.197-6.421 0-2.177.067-4.319.197-6.418 1.752-1.164 3.579-2.295 5.463-3.382 1.868-1.078 3.762-2.091 5.658-3.035 1.896.94 3.791 1.957 5.658 3.035 1.887 1.089 3.711 2.218 5.465 3.382.13 2.1.195 4.242.195 6.418 0 2.179-.065 4.322-.195 6.421-1.754 1.161-3.578 2.295-5.465 3.381zm-16.369 1.365c1.033.647 2.087 1.282 3.166 1.904 1.074.618 2.15 1.213 3.219 1.784-1.864.81-3.707 1.549-5.522 2.191-.35-1.89-.637-3.853-.863-5.879zm-4.317-7.475c-1.642-1.209-3.202-2.443-4.665-3.693 1.463-1.247 3.023-2.484 4.665-3.69-.041 1.21-.061 2.445-.061 3.69 0 1.248.02 2.48.061 3.693zm5.181-20.737c1.813.641 3.66 1.375 5.524 2.191-1.072.57-2.145 1.164-3.219 1.785-1.082.625-2.136 1.257-3.167 1.904.224-2.029.511-3.99.862-5.88zm17.394 3.975c-1.074-.621-2.15-1.215-3.219-1.785 1.863-.81 3.707-1.55 5.521-2.191.35 1.888.637 3.851.864 5.877-1.034-.644-2.088-1.278-3.166-1.901zm-14.684-14.06c1.205-3.214 2.619-5.791 4.087-7.451.763-.862 1.917-1.89 3.05-1.89 1.135 0 2.287 1.027 3.049 1.89 1.47 1.656 2.886 4.23 4.09 7.451.732 1.949 1.371 4.083 1.921 6.362-2.922 1.015-5.962 2.267-9.06 3.735-3.099-1.471-6.142-2.72-9.06-3.737.55-2.277 1.189-4.409 1.923-6.36zm-19.929 19.746c-2.179-2.653-3.705-5.166-4.405-7.263-.364-1.095-.682-2.604-.112-3.591.718-1.247 3.127-1.985 6.441-1.985 3.262 0 7.27.686 11.687 1.994-.58 3.038-1.015 6.291-1.292 9.713-2.824 1.947-5.428 3.959-7.766 5.977-1.703-1.614-3.227-3.237-4.553-4.845zm1.922 27.605c-3.316 0-5.721-.738-6.441-1.985-.57-.981-.252-2.495.112-3.589.702-2.098 2.224-4.61 4.405-7.262 1.324-1.613 2.85-3.232 4.549-4.848 2.34 2.021 4.944 4.032 7.764 5.977.279 3.423.716 6.678 1.294 9.713-4.415 1.31-8.419 1.994-11.683 1.994zm32.284 6.911c-1.204 3.215-2.62 5.79-4.09 7.448-.763.862-1.914 1.893-3.049 1.893-1.133 0-2.287-1.03-3.05-1.893-1.469-1.654-2.883-4.229-4.087-7.448-.734-1.951-1.373-4.083-1.922-6.364 2.919-1.013 5.961-2.264 9.06-3.735 3.098 1.474 6.142 2.723 9.06 3.737-.551 2.279-1.19 4.409-1.922 6.362zm24.333-12.486c.366 1.094.682 2.607.111 3.589-.718 1.247-3.127 1.985-6.441 1.985-3.261 0-7.269-.689-11.686-1.994.579-3.035 1.019-6.29 1.292-9.713 2.825-1.944 5.428-3.955 7.766-5.977 1.698 1.615 3.225 3.234 4.549 4.848 2.183 2.652 3.708 5.165 4.409 7.262z" fill="#fff"/></svg>