<svg xmlns="http://www.w3.org/2000/svg" viewBox="0 0 155.8 35.6" width="779" height="178"><path stroke="#fff" stroke-width=".7" stroke-miterlimit="10" d="M155.5 1.2v33.1" fill="none"/><path fill="#fff" d="M43.1 7c-.3-1.2-.8-2-1.4-2.4-.6-.4-1.4-.6-2.4-.6-1.8 0-3.1.6-3.9 1.8-.9 1.2-1.3 2.6-1.3 4.3 0 2 .5 3.6 1.4 4.8.9 1.2 2.2 1.8 3.8 1.8 1.1 0 2-.3 2.6-.8.6-.6 1.2-1.4 1.6-2.4l.5.1c-.1.5-.3 1-.5 1.7l-.5 1.6c-.3.1-.8.2-1.6.3-.7.2-1.5.2-2.2.3-2.5 0-4.3-.8-5.5-2.2-1.1-1.4-1.7-2.9-1.7-4.6 0-2.2.7-3.9 2.2-5.2 1.4-1.3 3.2-2 5.4-2 .9 0 1.6.1 2.2.2.6.1 1.1.2 1.4.3.1 1.1.3 2.1.4 3.1l-.5-.1zm15.6 2.5v-2.9c0-1.1-.1-1.8-.3-2.1-.1-.2-.3-.3-.5-.4-.2-.1-.6-.1-1-.1v-.4h5.3v.5c-.8 0-1.3.2-1.5.5-.2.3-.3 1-.3 2.1v7.3c0 1.1.1 1.8.3 2 .2.3.7.4 1.5.5v.5h-5.4v-.5c.9 0 1.4-.2 1.6-.5.2-.3.3-1 .3-2v-3.7h-6.9v3.7c0 1.1.1 1.8.3 2 .2.3.7.4 1.5.5v.5h-5.3v-.5c.8 0 1.3-.2 1.5-.5.2-.3.3-1 .3-2v-7.4c0-1.1-.1-1.8-.3-2.1-.1-.2-.3-.3-.6-.4-.3-.1-.6-.1-1-.1v-.4h5.3v.5c-.7 0-1.2.2-1.4.5-.2.3-.3 1-.3 2.1v2.9h6.9zm15.4 7.1l.6-.1c.4 0 .6-.1.7-.3.1-.1.1-.4-.1-.7-.2-.7-.6-1.9-1.3-3.6h-4c-.3.8-.6 1.8-1 3-.2.6-.2 1-.1 1.2.1.2.4.3.8.4l.6.1v.4h-4.3v-.5c.6 0 1.1-.2 1.3-.4.3-.2.5-.8.8-1.7l4.1-11 .5-.2 1.4 3.9c.9 2.7 1.8 5.2 2.6 7.4.3.8.6 1.4.9 1.6.3.2.7.4 1.3.4v.5h-4.8v-.4zm-3.8-5.5h3.5l-1.8-5.1-1.7 5.1zm15.9 2.9c0 1.1.1 1.8.3 2.1.3.3.8.4 1.8.5v.4h-5.6v-.5c.8 0 1.3-.2 1.5-.5.2-.3.3-1 .3-2v-7.4c0-1.1-.1-1.8-.3-2.1-.1-.2-.3-.3-.5-.4-.2-.1-.5-.1-.9-.1v-.4h5.1c1.4 0 2.5.3 3.3.9.8.6 1.3 1.5 1.3 2.8 0 1.3-.4 2.2-1.2 2.9-.8.7-1.7 1.1-2.7 1.2h-.9l-1.5-.4v3zm0-3.5c.3.1.8.2 1.5.2s1.3-.2 1.9-.7c.3-.2.5-.6.7-1 .2-.4.3-1 .3-1.6 0-2.1-1.1-3.2-3.2-3.2-.5 0-.9 0-1 .1-.1 0-.1.1-.1.1 0 .1-.1.2-.1.4v5.7zm14.1-6.9l4.8 10.6 4.8-10.6h3.3v.5c-.8 0-1.4.2-1.6.4-.2.3-.3 1-.2 2.1l.2 7.4c0 1.1.1 1.8.3 2 .2.3.7.4 1.6.5v.5h-5.3v-.5c.8 0 1.3-.2 1.5-.5.2-.3.3-.9.2-2l-.1-8.3h-.1l-4.9 11.1h-.5l-4.6-10.8-.2 5.8c-.1 1.9-.1 3.1 0 3.7.1.4.2.6.5.8.3.2.8.3 1.4.3v.4h-4.7v-.5c.6-.1 1-.2 1.2-.3.3-.1.4-.4.5-.8.1-.6.2-1.9.3-3.9l.2-4.3c.1-1.3.1-2.2-.1-2.6-.2-.4-.8-.5-1.7-.6v-.4h3.2zm25.1 13l.6-.1c.4 0 .6-.1.7-.3.1-.1.1-.4-.1-.7-.2-.7-.6-1.9-1.3-3.6h-4.1c-.3.8-.6 1.8-1 3-.2.6-.2 1-.1 1.2.1.2.4.3.8.4l.6.1v.4h-4.3v-.5c.6 0 1.1-.2 1.3-.4.3-.2.5-.8.8-1.7l4.1-11 .5-.2 1.4 3.9c.9 2.7 1.8 5.2 2.6 7.4.3.8.6 1.4.9 1.6.3.2.7.4 1.3.4v.5h-4.8v-.4zm-3.8-5.5h3.5l-1.8-5.1-1.7 5.1zm24.3 6.1h-.5l-8.7-10.9v5.3c0 2.1.1 3.4.2 3.9.1.4.2.6.5.8.3.2.8.3 1.4.3v.4h-4.8v-.5c1.1 0 1.6-.4 1.7-1.1.1-.6.1-1.9.2-3.9v-5.9c-.1-.3-.2-.6-.3-.8-.2-.2-.4-.4-.7-.5-.3-.1-.7-.1-1.1-.2v-.5h2.9l8.4 10.4v-4.9c0-2.1-.1-3.4-.2-3.9 0-.4-.2-.6-.5-.8-.3-.2-.8-.3-1.5-.3v-.5h4.8v.5c-1.1 0-1.6.4-1.7 1.1-.1.5-.2 1.8-.2 3.9v8.1zm-109.1 3v.4c-.6 0-1.1.1-1.2.4-.2.2-.2.8-.2 1.7v3.6c0 1.5.2 2.6.7 3.3.5.8 1.3 1.2 2.4 1.2 1.1 0 1.9-.4 2.5-1.3.3-.4.5-1 .6-1.7.1-.7.2-1.4.2-2.1v-.9c0-1.7-.1-2.8-.1-3.3 0-.3-.2-.5-.4-.7-.3-.1-.7-.2-1.2-.2v-.4h4v.4c-.9 0-1.4.3-1.4.9-.1.5-.1 1.6-.1 3.3v1.2c0 1.9-.4 3.4-1.3 4.5-.4.4-.8.7-1.4.9-.5.2-1.1.3-1.7.3-.5 0-.9-.1-1.4-.2-.5-.1-.9-.3-1.3-.7-.9-.7-1.3-2-1.3-3.9v-4.2c0-.9-.1-1.5-.2-1.7-.1-.1-.2-.2-.4-.3-.2 0-.5-.1-.9-.1v-.4h4.1zm20.2 11.3h-.4l-7.2-9.1v4.4c0 1.7 0 2.8.1 3.3 0 .3.2.5.5.6.2.2.6.2 1.2.3v.4h-4v-.4c.9 0 1.4-.3 1.4-.9.1-.5.1-1.6.1-3.3v-5c0-.3-.1-.5-.3-.6-.1-.2-.3-.4-.6-.5-.2-.1-.5-.1-.9-.1v-.4h2.4l7 8.7v-4.1c0-1.7-.1-2.8-.1-3.3 0-.3-.2-.5-.4-.7-.3-.1-.7-.2-1.2-.2v-.4h4v.4c-.9 0-1.4.3-1.4.9-.1.4-.2 1.5-.2 3.2v6.8zm7.9-2.6c0 .9.1 1.5.3 1.7.2.2.6.4 1.2.4v.4h-4.4v-.4c.7 0 1.1-.2 1.3-.4.2-.2.2-.8.2-1.7v-6.2c0-.9-.1-1.5-.2-1.7-.1-.1-.2-.2-.4-.3-.2 0-.5-.1-.8-.1v-.4h4.4v.4c-.6 0-1.1.1-1.2.4-.2.2-.3.8-.3 1.7v6.2zm9.5 2.5c-1.4-3.7-2.5-6.7-3.4-9.2-.2-.7-.5-1.1-.7-1.3-.2-.2-.6-.3-1.1-.3v-.4h4v.4l-.5.1c-.3 0-.5.1-.5.2-.1.1-.1.3 0 .6.6 1.7 1.6 4.3 2.9 7.9 1.1-3.1 2-5.6 2.7-7.4.2-.5.2-.8.1-1-.1-.2-.3-.3-.7-.3l-.5-.1v-.4h3.7v.4c-.5 0-.9.1-1.1.3-.2.2-.5.7-.8 1.4-.7 1.6-1.8 4.6-3.5 9.1h-.6zm10.5-8.7c0-.9-.1-1.5-.2-1.7-.1-.1-.2-.2-.4-.3-.2 0-.5-.1-.8-.1v-.4h7.3c0 .5.1 1.3.2 2.5l-.4.1c-.2-.8-.4-1.3-.6-1.6-.1-.2-.3-.3-.6-.3-.3-.1-.7-.1-1.2-.1h-1.3c-.2 0-.4 0-.4.1-.1.1-.1.2-.1.5v3.9h1.7c.7 0 1.1-.1 1.3-.2.2-.1.3-.5.3-1.2h.3v3.4h-.4c0-.6-.2-1-.3-1.2-.1-.1-.3-.2-.5-.2h-2.5v3c0 1 .1 1.5.4 1.7.2.1.4.2.7.2h1c.5 0 .9 0 1.3-.1s.6-.2.8-.4c.3-.3.6-.9.8-1.7h.4l-.6 2.7h-7.9v-.3c.7 0 1.2-.2 1.4-.4.2-.2.3-.8.3-1.7v-6.2zm13 6.2c0 .9.1 1.5.3 1.7.2.2.6.4 1.2.4v.4h-4.4v-.4c.7 0 1.1-.2 1.3-.4.2-.2.2-.8.2-1.7v-6.2c0-.9-.1-1.5-.2-1.7-.1-.1-.2-.2-.4-.3-.2 0-.5-.1-.8-.1v-.4h4.2c1.1 0 2 .2 2.6.6.7.4 1.1 1.2 1.1 2.2 0 1.4-.8 2.4-2.2 3 .4.7.9 1.5 1.5 2.5.5.8 1 1.5 1.4 1.9l.5.5c.2.1.4.3.7.3v.3h-.2c-.9 0-1.6-.2-2-.5-.2-.1-.4-.3-.6-.5-.2-.2-.4-.4-.5-.6-.6-.9-1.1-1.9-1.7-2.9-.2-.4-.6-.6-1.1-.6h-.9v2.5zm0-3h1c.7 0 1.2-.1 1.7-.5.4-.3.6-.7.8-1.1.1-.4.2-.8.2-1.2 0-.9-.3-1.6-.8-2-.5-.4-1.1-.6-1.7-.6-.5 0-.8 0-.9.1 0 0-.1 0-.1.1v5.2zm10.3 2.4c.1.2.2.4.3.7.1.3.3.6.6.9.2.3.5.5.8.7.3.2.7.3 1.1.3 1.3 0 2-.8 2.1-2.2 0-.4-.1-.7-.2-1-.1-.3-.3-.5-.5-.7-.2-.2-.4-.4-.7-.5l-.8-.4c-.1-.1-.4-.2-.7-.3-.3-.2-.6-.3-.9-.6-.3-.3-.6-.6-.8-.9-.2-.4-.4-.8-.4-1.3 0-.9.3-1.6.9-2.2.6-.6 1.4-.9 2.5-.9.5 0 1 .1 1.4.2l.6.2c.1.6.2 1.3.3 2.3l-.4.1-.2-.8c-.1-.3-.3-.5-.4-.7-.2-.2-.4-.4-.7-.5-.3-.1-.6-.2-1-.2-.6 0-1 .2-1.3.6-.3.4-.5.8-.5 1.3 0 .3.1.6.2.8.1.2.2.5.4.6.4.4.9.7 1.5 1 .3.1.6.2.9.4l.9.6c.3.3.5.6.7.9.2.4.3.8.3 1.4 0 1-.4 1.8-1 2.5-.7.7-1.6 1-2.7 1-.6 0-1.1-.1-1.6-.3-.4-.2-.7-.3-.9-.4-.1-.3-.1-.6-.2-1.1l-.3-1.5h.7zm12.7.6c0 .9.1 1.5.3 1.7.2.2.6.4 1.2.4v.4h-4.4v-.4c.7 0 1.1-.2 1.3-.4.2-.2.2-.8.2-1.7v-6.2c0-.9-.1-1.5-.2-1.7-.1-.1-.2-.2-.4-.3-.2 0-.5-.1-.8-.1v-.4h4.4v.4c-.6 0-1.1.1-1.2.4-.2.2-.3.8-.3 1.7v6.2zm10.1 0c0 .9.1 1.5.3 1.7.2.2.7.4 1.5.4v.4h-4.9v-.4c.8 0 1.2-.2 1.4-.4.2-.2.3-.8.3-1.7v-8.1h-.8c-.7 0-1.2 0-1.5.1-.3.1-.5.2-.7.4-.2.2-.4.7-.6 1.5h-.4c.1-1.1.2-2.1.2-3h.2c.1.2.2.3.4.3.1.1.3.1.5.1h6.8c.2 0 .4 0 .5-.1l.3-.3h.2c0 .8.1 1.8.2 3l-.4.1c-.2-.8-.4-1.3-.6-1.6-.1-.2-.3-.3-.6-.4-.3-.1-.7-.1-1.2-.1h-1.1v8.1zm12.5 0c0 .9.1 1.5.3 1.7.2.2.7.4 1.6.4v.4h-5.1v-.4c.8 0 1.3-.2 1.5-.4.2-.2.3-.8.3-1.7v-2c0-.2 0-.3-.1-.4 0-.1-.2-.3-.3-.6l-1.1-2-1.1-1.9c-.3-.6-.6-1-.8-1.2-.2-.2-.5-.3-1-.3v-.4h4.1v.4l-.8.1c-.2 0-.3.1-.4.2-.1.1 0 .3.1.6l2.4 4.3c.8-1.4 1.5-2.8 2.1-4.2.1-.3.2-.5.1-.7-.1-.1-.3-.2-.6-.2l-.7-.1v-.4h3.8v.4c-.5 0-.9.1-1.1.3-.2.2-.5.6-.8 1.1-.7 1.2-1.5 2.4-2.2 3.8-.1.2-.2.4-.2.5l-.1.4v2.3zm-130.4-11.2l-13.1 13.1v-13.1zm-13.1-.8v-13.1l13.1 13.1zm27.6-13.7l-13.1 13.1v-13.1zm-13.9 13.1l-13.1-13.1h13.1zm1.4.6l13.1-13.1v13.1zm13.1.8v13.1l-13.1-13.1zm-14.5.6l-13.1 13.1h13.1zm.8 0v13.1h13.1z"/></svg>