<svg enable-background="new 0 0 512 512" height="512" viewBox="0 0 512 512" width="512" xmlns="http://www.w3.org/2000/svg"><path d="m480 128c17.673 0 32-14.327 32-32v-64h-64v-32h-416c-17.6 0-32 14.399-32 32v448c0 17.6 14.396 32 32 32h416v-128h32c17.673 0 32-14.327 32-32v-64h-64v-32h32c17.673 0 32-14.327 32-32v-64h-64v-32zm-192 .165c35.255 0 63.835 28.58 63.835 63.835s-28.58 63.835-63.835 63.835-63.835-28.58-63.835-63.835 28.58-63.835 63.835-63.835zm-160 351.835h-32v-448h32zm256-96h-192v-32c0-35.347 28.652-64 64-64h64c35.348 0 64 28.653 64 64z" fill="#a82439"/></svg>