<svg height="10" viewBox="0 0 10 10" width="10" xmlns="http://www.w3.org/2000/svg"><path d="m9.90878963 8.03378019c-.00003906-.00003906-.00007812-.00007812-.00011718-.00009765l-3.03363508-3.03369368 3.03363508-3.03369367c.00003906-.00003906.00007812-.00005859.00011718-.00009766.03265628-.0326758.05626958-.07083989.07140631-.11148446.04146486-.11109383.01781251-.24103533-.07152349-.33037134l-1.43306748-1.43306747c-.089336-.08931648-.21923845-.11294931-.33035181-.07148443-.04062503.01513673-.07880865.03875003-.11150399.07138677 0 .00003906-.00003906.00005859-.00007812.00009766l-3.03367415 3.0337132-3.03367414-3.03369367c-.00003906-.00003907-.0000586-.0000586-.00009766-.00009766-.0326758-.03263674-.07083989-.05625004-.11146492-.07138677-.1111329-.04148441-.24103534-.01783205-.33037135.07148443l-1.433087 1.43308701c-.08933601.089336-.11296884.21925797-.07150396.33035181.01515626.04062503.03876956.07882818.0714063.11148445.00003906.00001954.00005859.0000586.00009766.00009766l3.03369367 3.03367414-3.03369367 3.03371321c-.00001954.00003906-.0000586.00005859-.00007813.00009766-.03263674.0326758-.05625004.07083989-.07142583.11146492-.04148441.11109384-.01783205.24103534.07150396.33037134l1.433087 1.43306748c.08935554.08933601.21925798.11296883.33037135.07150396.04062503-.01515626.07880865-.03876956.11148445-.0714063.00001953-.00003907.0000586-.0000586.00009766-.00009766l3.03367414-3.03369367 3.03367415 3.03369367c.00003906.00001953.00007812.00005859.00011718.00007813.03269534.03265627.0708399.05626957.11146493.07142583.11111337.04146487.24105487.01783205.33035181-.07150396l1.43306748-1.43308701c.089336-.089336.11298832-.21927751.07152349-.33037134-.01515626-.04062503-.03876956-.07878912-.07142584-.11146493z" fill="#fff" fill-rule="evenodd" transform=""/></svg>
