<?xml version="1.0" encoding="UTF-8" standalone="no"?>
<svg width="31px" height="31px" viewBox="0 0 31 31" version="1.1" xmlns="http://www.w3.org/2000/svg" xmlns:xlink="http://www.w3.org/1999/xlink" xmlns:sketch="http://www.bohemiancoding.com/sketch/ns">
    <!-- Generator: Sketch 3.4.1 (15681) - http://www.bohemiancoding.com/sketch -->
    <title>chapman_logo_horizonal_stacked</title>
    <desc>Created with Sketch.</desc>
    <defs></defs>
    <g id="Slides" stroke="none" stroke-width="1" fill="none" fill-rule="evenodd" sketch:type="MSPage">
        <g id="Signs--::--Index" sketch:type="MSArtboardGroup" transform="translate(-12.000000, -12.000000)" fill="#98002E">
            <g id="chapman_logo_horizonal_stacked" sketch:type="MSLayerGroup" transform="translate(12.000000, 12.000000)">
                <g id="Layer_1" sketch:type="MSShapeGroup">
                    <g id="Group">
                        <g id="Shape">
                            <path d="M14.1311089,15.77652 L0,29.9030822 L0,15.77652 L14.1311089,15.77652 Z"></path>
                            <path d="M0,14.87008 L0,0.740004444 L14.1311089,14.87008 L0,14.87008 Z"></path>
                            <path d="M29.8047089,0.101817778 L15.6746333,14.2298956 L15.6746333,0.101817778 L29.8047089,0.101817778 Z"></path>
                            <path d="M14.77026,14.2298956 L0.640184444,0.101817778 L14.77026,0.101817778 L14.77026,14.2298956 Z"></path>
                            <path d="M16.3148178,14.87008 L30.4443422,0.740004444 L30.4443422,14.87008 L16.3148178,14.87008 Z"></path>
                            <path d="M30.4443422,15.77652 L30.4443422,29.9030822 L16.3148178,15.77652 L30.4443422,15.77652 Z"></path>
                            <path d="M14.77026,16.4137422 L0.640184444,30.5422333 L14.77026,30.5422333 L14.77026,16.4137422 Z"></path>
                            <path d="M15.6746333,16.4137422 L15.6746333,30.5422333 L29.8026422,30.5422333 L15.6746333,16.4137422 Z"></path>
                        </g>
                    </g>
                </g>
            </g>
        </g>
    </g>
</svg>