<svg height="11" viewBox="0 0 11 11" width="11" xmlns="http://www.w3.org/2000/svg"><path d="m11 6.53225977v-2.06451954l-1.57667383-.26277539c-.06400195-.19477734-.1420332-.38315234-.23304101-.56396484l.92870504-1.30016992-1.45982028-1.4598418-1.29793554.92709375c-.1816504-.09188867-.37101368-.17067187-.56684375-.23527539l-.26213086-1.57280664h-2.06451954l-.26213085 1.57282813c-.19583008.06460351-.38519336.14338671-.56682227.23527539l-1.29795703-.92709375-1.4598418 1.45984179.92870508 1.30019141c-.09098633.18079101-.16901758.36916601-.23301953.56394336l-1.57667383.2627539v2.06451954l1.58036914.26339843c.06402344.19301563.1419043.37971485.23248242.55891602l-.93186328 1.30461719 1.4598418 1.45982029 1.30683008-.93343162c.17834179.08969726.36405273.16680469.55605859.23024804l.26402148 1.58417188h2.06451954l.26402148-1.58419336c.19200586-.06344336.3777168-.14055078.55608008-.23022656l1.30680859.93341012 1.45982028-1.45982028-.93182028-1.3045957c.09057813-.17920117.16841602-.36590039.23246094-.5589375zm-5.5.34274023c-.75938672 0-1.375-.6155918-1.375-1.375 0-.75938672.61561328-1.375 1.375-1.375.7594082 0 1.375.61561328 1.375 1.375 0 .7594082-.6155918 1.375-1.375 1.375z" fill="#fff" fill-rule="evenodd" transform=""/></svg>
