<svg height="15" viewBox="0 0 17 15" width="17" xmlns="http://www.w3.org/2000/svg"><path d="m16.5172414 8.8890694v-2.8093888l-2.367482-.35758355c-.0961033-.26505213-.2132725-.52139197-.3499268-.7674408l1.3945132-1.76926532-2.1920186-1.98654608-1.9489377 1.26158496c-.2727603-.12504169-.557102-.23224951-.851154-.32016168l-.3936072-2.14026813h-3.10001522l-.39360715 2.14029736c-.29405206.08791217-.57839379.19512-.85112184.32016169l-1.94896996-1.26158497-2.19205085 1.98654609 1.39451327 1.76929455c-.1366221.24601959-.25379129.50235944-.34989453.76741156l-2.36748202.35755432v2.8093888l2.37303078.35843139c.09613551.26265479.21307886.51671424.34908802.76057041l-1.39925552 1.7753171 2.19205085 1.9865169 1.96229344-1.2702096c.26779223.1220596.54664972.2269871.83495946.3133205l.39644605 2.1557339h3.10001522l.3964461-2.1557631c.2883097-.0863335.5671672-.1912609.8349917-.3132913l1.9622611 1.2701803 2.1920186-1.9865168-1.399191-1.7752879c.1360092-.24385617.252888-.49791562.3490558-.76059964zm-8.25862071.46639935c-1.14027034 0-2.06465517-.83769452-2.06465517-1.87109375 0-1.03337.92438483-1.87109375 2.06465517-1.87109375 1.1403026 0 2.06465521.83772375 2.06465521 1.87109375 0 1.03339923-.92435261 1.87109375-2.06465521 1.87109375z" fill="#4a4a4a" fill-rule="evenodd" transform="translate(.482759 .03125)"/></svg>