<?xml version="1.0" encoding="utf-8"?>
<!-- Generator: Adobe Illustrator 16.0.0, SVG Export Plug-In . SVG Version: 6.00 Build 0)  -->
<!DOCTYPE svg PUBLIC "-//W3C//DTD SVG 1.1//EN" "http://www.w3.org/Graphics/SVG/1.1/DTD/svg11.dtd">
<svg version="1.1" id="Layer_1" xmlns="http://www.w3.org/2000/svg" xmlns:xlink="http://www.w3.org/1999/xlink" x="0px" y="0px"
	 width="100px" height="100px" viewBox="0 0 100 100" enable-background="new 0 0 100 100" xml:space="preserve">
<path fill="#FFFFFF" d="M76.066,24.925L76.066,24.925L76.066,24.925z M76.23,48.917c8.205-7.845,12.189-15.529,9.538-20.121
	c-1.514-2.621-4.979-3.872-9.706-3.872v3.772c3.312,0,5.721,0.745,6.438,1.985c0.57,0.985,0.255,2.497-0.111,3.591
	c-0.7,2.098-2.226,4.608-4.405,7.261c-1.324,1.611-2.85,3.231-4.551,4.847c-2.34-2.021-4.942-4.031-7.764-5.978
	c-0.277-3.422-0.714-6.675-1.294-9.713c4.417-1.31,8.427-1.994,11.687-1.994l0.004-3.772h-0.004c-3.553,0-7.812,0.708-12.488,2.073
	C60.883,15.971,56.222,8.675,50.917,8.675c-5.302,0-9.965,7.295-12.657,18.32c-4.675-1.365-8.936-2.073-12.488-2.073
	c-4.726,0-8.195,1.249-9.708,3.872c-2.653,4.592,1.331,12.276,9.538,20.121c-8.207,7.847-12.19,15.532-9.538,20.124
	c1.514,2.618,4.98,3.871,9.708,3.871c3.552,0,7.812-0.708,12.488-2.075c2.692,11.031,7.355,18.327,12.657,18.327
	c5.304,0,9.965-7.296,12.657-18.32c4.676,1.365,8.936,2.073,12.488,2.073c4.728,0,8.194-1.252,9.708-3.872
	C88.42,64.449,84.436,56.765,76.23,48.917z M70.609,48.917c-1.465,1.25-3.023,2.484-4.665,3.693
	c0.043-1.213,0.065-2.446,0.065-3.693c0-1.245-0.022-2.48-0.063-3.69C67.59,46.434,69.148,47.67,70.609,48.917z M60.765,65.965
	c-1.812-0.643-3.66-1.377-5.523-2.191c1.072-0.571,2.144-1.166,3.221-1.784c1.078-0.625,2.134-1.257,3.165-1.904
	C61.403,62.111,61.116,64.074,60.765,65.965z M56.575,58.72c-1.867,1.078-3.762,2.092-5.658,3.035
	c-1.896-0.939-3.79-1.957-5.658-3.035c-1.884-1.088-3.711-2.22-5.463-3.381c-0.13-2.1-0.197-4.242-0.197-6.421
	c0-2.177,0.067-4.319,0.197-6.418c1.752-1.164,3.579-2.295,5.463-3.382c1.868-1.078,3.762-2.091,5.658-3.035
	c1.896,0.94,3.791,1.957,5.658,3.035c1.887,1.089,3.711,2.218,5.465,3.382c0.13,2.1,0.195,4.242,0.195,6.418
	c0,2.179-0.065,4.322-0.195,6.421C60.286,56.5,58.462,57.634,56.575,58.72z M40.206,60.085c1.033,0.647,2.087,1.282,3.166,1.904
	c1.074,0.618,2.15,1.213,3.219,1.784c-1.864,0.81-3.707,1.549-5.522,2.191C40.719,64.074,40.432,62.111,40.206,60.085z
	 M35.889,52.61c-1.642-1.209-3.202-2.443-4.665-3.693c1.463-1.247,3.023-2.484,4.665-3.69c-0.041,1.21-0.061,2.445-0.061,3.69
	C35.828,50.165,35.848,51.397,35.889,52.61z M41.07,31.873c1.813,0.641,3.66,1.375,5.524,2.191c-1.072,0.57-2.145,1.164-3.219,1.785
	c-1.082,0.625-2.136,1.257-3.167,1.904C40.432,35.724,40.719,33.763,41.07,31.873z M58.464,35.848
	c-1.074-0.621-2.15-1.215-3.219-1.785c1.863-0.81,3.707-1.55,5.521-2.191c0.35,1.888,0.637,3.851,0.864,5.877
	C60.596,37.105,59.542,36.471,58.464,35.848z M43.78,21.788c1.205-3.214,2.619-5.791,4.087-7.451c0.763-0.862,1.917-1.89,3.05-1.89
	c1.135,0,2.287,1.027,3.049,1.89c1.47,1.656,2.886,4.23,4.09,7.451c0.732,1.949,1.371,4.083,1.921,6.362
	c-2.922,1.015-5.962,2.267-9.06,3.735c-3.099-1.471-6.142-2.72-9.06-3.737C42.407,25.871,43.046,23.739,43.78,21.788z
	 M23.851,41.534c-2.179-2.653-3.705-5.166-4.405-7.263c-0.364-1.095-0.682-2.604-0.112-3.591c0.718-1.247,3.127-1.985,6.441-1.985
	l0,0c3.262,0,7.27,0.686,11.687,1.994c-0.58,3.038-1.015,6.291-1.292,9.713c-2.824,1.947-5.428,3.959-7.766,5.977
	C26.701,44.765,25.177,43.142,23.851,41.534z M25.773,69.139c-3.316,0-5.721-0.738-6.441-1.985c-0.57-0.981-0.252-2.495,0.112-3.589
	c0.702-2.098,2.224-4.61,4.405-7.262c1.324-1.613,2.85-3.232,4.549-4.848c2.34,2.021,4.944,4.032,7.764,5.977
	c0.279,3.423,0.716,6.678,1.294,9.713C33.041,68.455,29.037,69.139,25.773,69.139z M58.057,76.05c-1.204,3.215-2.62,5.79-4.09,7.448
	c-0.763,0.862-1.914,1.893-3.049,1.893c-1.133,0-2.287-1.03-3.05-1.893c-1.469-1.654-2.883-4.229-4.087-7.448
	c-0.734-1.951-1.373-4.083-1.922-6.364c2.919-1.013,5.961-2.264,9.06-3.735c3.098,1.474,6.142,2.723,9.06,3.737
	C59.428,71.967,58.789,74.097,58.057,76.05z M82.39,63.564c0.366,1.094,0.682,2.607,0.111,3.589
	c-0.718,1.247-3.127,1.985-6.441,1.985c-3.261,0-7.269-0.689-11.686-1.994c0.579-3.035,1.019-6.29,1.292-9.713
	c2.825-1.944,5.428-3.955,7.766-5.977c1.698,1.615,3.225,3.234,4.549,4.848C80.164,58.954,81.689,61.467,82.39,63.564z"/>
</svg>
