<svg version="1.1" xmlns="http://www.w3.org/2000/svg" xmlns:xlink="http://www.w3.org/1999/xlink" viewBox="0 0 512 512">
  <path id="ticket" fill="#FFFFFF" d="M234.375,161.965l84.068,20.524l-41.047,168.135l-84.069-20.523L234.375,161.965z M402.649,47.148L354.365,35.36
    l-5.133,21.022c-2.627,10.757-9.357,20.514-19.567,26.716c-20.424,12.409-47.04,5.912-59.447-14.512
    c-6.206-10.215-7.684-21.98-5.05-32.741l5.129-21.009L222.01,3.049c-19.683-4.806-39.718,7.367-44.525,27.049L82.072,420.915
    c-4.802,19.685,7.369,39.721,27.051,44.526l48.287,11.787l5.125-20.992c2.622-10.771,9.357-20.538,19.577-26.747
    c20.423-12.409,47.038-5.91,59.446,14.514c6.207,10.216,7.682,21.98,5.05,32.742l-5.127,21.009l48.284,11.789
    c19.682,4.806,39.72-7.369,44.525-27.05L429.7,91.675C434.502,71.99,422.33,51.953,402.649,47.148z M309.17,402.921l-168.14-41.049
    l61.573-252.207l168.138,41.048L309.17,402.921z"/>
</svg>