<svg viewBox="0 0 512 512" xmlns="http://www.w3.org/2000/svg"><path d="m234.375 161.965 84.068 20.524-41.047 168.135-84.069-20.523zm168.274-114.817-48.284-11.788-5.133 21.022c-2.627 10.757-9.357 20.514-19.567 26.716-20.424 12.409-47.04 5.912-59.447-14.512-6.206-10.215-7.684-21.98-5.05-32.741l5.129-21.009-48.287-11.787c-19.683-4.806-39.718 7.367-44.525 27.049l-95.413 390.817c-4.802 19.685 7.369 39.721 27.051 44.526l48.287 11.787 5.125-20.992c2.622-10.771 9.357-20.538 19.577-26.747 20.423-12.409 47.038-5.91 59.446 14.514 6.207 10.216 7.682 21.98 5.05 32.742l-5.127 21.009 48.284 11.789c19.682 4.806 39.72-7.369 44.525-27.05l95.41-390.818c4.802-19.685-7.37-39.722-27.051-44.527zm-93.479 355.773-168.14-41.049 61.573-252.207 168.138 41.048z" fill="#fff"/></svg>