<svg enable-background="new 0 0 336.097 33.099" height="33.099" viewBox="0 0 336.097 33.099" width="336.097" xmlns="http://www.w3.org/2000/svg"><g fill="#fff"><path d="m166.614 5.455c1.793 0 3.425.384 4.481 1.409.736.736 1.345 1.921 1.345 3.329 0 3.938-3.042 5.667-6.787 5.667h-3.922v-.448c1.312-.096 1.441-.224 1.441-1.953v-5.604c0-1.728-.128-1.856-1.313-1.953v-.447zm-1.649 7.971c0 1.473.16 1.777 1.393 1.777 2.658 0 4.034-1.873 4.034-4.53 0-3.425-1.729-4.61-4.29-4.61-.528 0-.944.064-1.04.144s-.096.368-.096.784v6.435z"/><path d="m184.885 10.465c0 3.409-2.385 5.634-5.427 5.634-3.153 0-5.233-2.353-5.233-5.266 0-2.625 1.84-5.619 5.602-5.619 2.769 0 5.058 2.129 5.058 5.251zm-8.58-.144c0 2.897 1.281 5.138 3.554 5.138 1.665 0 2.945-1.393 2.945-4.401 0-3.33-1.329-5.202-3.474-5.202-1.697-.001-3.025 1.631-3.025 4.465z"/><path d="m191.234 5.455c1.793 0 3.426.384 4.481 1.409.736.736 1.345 1.921 1.345 3.329 0 3.938-3.041 5.667-6.787 5.667h-3.922v-.448c1.313-.096 1.441-.224 1.441-1.953v-5.604c0-1.728-.129-1.856-1.312-1.953v-.447zm-1.648 7.971c0 1.473.16 1.777 1.393 1.777 2.656 0 4.033-1.873 4.033-4.53 0-3.425-1.729-4.61-4.29-4.61-.528 0-.944.064-1.04.144s-.096.368-.096.784z"/><path d="m208.191 14.002c0 .577 0 1.088.097 1.425-.992.288-2.273.672-3.489.672-3.57 0-5.955-2.129-5.955-5.33 0-3.65 2.914-5.555 6.051-5.555 1.377 0 2.497.288 3.073.417.032.544.128 1.376.257 2.593l-.513.064c-.416-2.017-1.761-2.433-3.073-2.433-2.209 0-3.713 1.681-3.713 4.594 0 2.465 1.056 5.01 3.969 5.01.512 0 .816-.064 1.072-.176.305-.128.433-.4.433-1.04v-1.345c0-1.088-.063-1.184-1.761-1.312v-.48h4.449v.48c-.832.128-.896.192-.896 1.312v1.104z"/><path d="m217.551 5.455c.032.256.096 1.44.191 2.433l-.479.032c-.16-.768-.352-1.216-.593-1.457-.271-.272-.783-.368-1.776-.368h-.8c-.608 0-.641 0-.641.577v3.393h1.377c1.376 0 1.408-.096 1.568-1.329h.512v3.394h-.512c-.16-1.265-.192-1.329-1.568-1.329h-1.377v2.625c0 .929.064 1.377.352 1.585.289.192.865.208 1.537.208.801 0 1.537-.064 1.873-.464.271-.304.544-.848.816-1.617l.48.096c-.064.544-.416 2.177-.545 2.625h-7.811v-.448c1.376-.096 1.504-.224 1.504-1.953v-5.603c0-1.728-.128-1.856-1.344-1.953v-.447z"/><path d="m232.399 8.224c-.513-1.825-1.521-2.369-3.009-2.369-2.625 0-3.809 2.193-3.809 4.562 0 2.978 1.472 5.042 3.809 5.042 1.729 0 2.529-.896 3.361-2.593l.447.096c-.191.768-.543 2.049-.8 2.657-.448.128-1.889.48-3.009.48-4.193 0-5.891-2.737-5.891-5.266 0-3.361 2.594-5.619 6.179-5.619 1.376 0 2.433.32 2.881.417.128.897.192 1.601.288 2.529z"/><path d="m245.04 10.465c0 3.409-2.385 5.634-5.426 5.634-3.153 0-5.234-2.353-5.234-5.266 0-2.625 1.841-5.619 5.602-5.619 2.77 0 5.058 2.129 5.058 5.251zm-8.579-.144c0 2.897 1.28 5.138 3.553 5.138 1.665 0 2.945-1.393 2.945-4.401 0-3.33-1.328-5.202-3.473-5.202-1.697-.001-3.025 1.631-3.025 4.465z"/><path d="m251.149 5.455v.448c-1.28.096-1.409.224-1.409 1.953v5.57c0 .929.097 1.377.369 1.569.271.192.8.224 1.312.224.736 0 1.504-.064 1.84-.464.273-.304.529-.848.785-1.617l.512.096c-.096.512-.448 2.145-.576 2.625h-7.507v-.448c1.345-.096 1.473-.224 1.473-1.953v-5.603c0-1.728-.128-1.856-1.409-1.953v-.447z"/><path d="m260.077 5.455v.448c-1.28.096-1.409.224-1.409 1.953v5.57c0 .929.097 1.377.369 1.569.271.192.8.224 1.312.224.736 0 1.504-.064 1.84-.464.272-.304.529-.848.785-1.617l.512.096c-.096.512-.448 2.145-.576 2.625h-7.507v-.448c1.345-.096 1.473-.224 1.473-1.953v-5.603c0-1.728-.128-1.856-1.409-1.953v-.447z"/><path d="m271.694 5.455c.032.256.097 1.44.192 2.433l-.48.032c-.16-.768-.352-1.216-.592-1.457-.272-.272-.785-.368-1.777-.368h-.801c-.607 0-.64 0-.64.577v3.393h1.376c1.377 0 1.409-.096 1.569-1.329h.513v3.394h-.513c-.16-1.265-.192-1.329-1.569-1.329h-1.376v2.625c0 .929.064 1.377.353 1.585.287.192.863.208 1.536.208.8 0 1.536-.064 1.873-.464.272-.304.544-.848.815-1.617l.48.096c-.064.544-.416 2.177-.544 2.625h-7.811v-.448c1.377-.096 1.506-.224 1.506-1.953v-5.603c0-1.728-.129-1.856-1.346-1.953v-.447z"/><path d="m283.15 14.002c0 .577 0 1.088.097 1.425-.992.288-2.273.672-3.489.672-3.57 0-5.955-2.129-5.955-5.33 0-3.65 2.914-5.555 6.051-5.555 1.377 0 2.497.288 3.073.417.032.544.128 1.376.257 2.593l-.513.064c-.416-2.017-1.761-2.433-3.073-2.433-2.209 0-3.713 1.681-3.713 4.594 0 2.465 1.056 5.01 3.969 5.01.512 0 .816-.064 1.072-.176.305-.128.433-.4.433-1.04v-1.345c0-1.088-.064-1.184-1.761-1.312v-.48h4.449v.48c-.832.128-.897.192-.897 1.312z"/><path d="m292.51 5.455c.032.256.096 1.44.191 2.433l-.48.032c-.16-.768-.352-1.216-.593-1.457-.272-.272-.783-.368-1.776-.368h-.8c-.608 0-.641 0-.641.577v3.393h1.377c1.376 0 1.408-.096 1.568-1.329h.512v3.394h-.512c-.16-1.265-.192-1.329-1.568-1.329h-1.377v2.625c0 .929.064 1.377.352 1.585.289.192.865.208 1.537.208.801 0 1.537-.064 1.873-.464.271-.304.544-.848.816-1.617l.48.096c-.064.544-.416 2.177-.545 2.625h-7.81v-.448c1.376-.096 1.504-.224 1.504-1.953v-5.603c0-1.728-.128-1.856-1.344-1.953v-.447z"/><path d="m309.119 10.465c0 3.409-2.385 5.634-5.426 5.634-3.153 0-5.234-2.353-5.234-5.266 0-2.625 1.841-5.619 5.603-5.619 2.768 0 5.057 2.129 5.057 5.251zm-8.579-.144c0 2.897 1.28 5.138 3.554 5.138 1.664 0 2.944-1.393 2.944-4.401 0-3.33-1.328-5.202-3.473-5.202-1.697-.001-3.025 1.631-3.025 4.465z"/><path d="m317.949 5.455c.032.256.096 1.44.191 2.369l-.479.064c-.16-.736-.353-1.185-.593-1.425-.271-.272-.784-.368-1.776-.368h-.832c-.608 0-.641 0-.641.577v3.553h1.6c1.377 0 1.408-.096 1.568-1.281h.513v3.282h-.513c-.16-1.201-.191-1.265-1.568-1.265h-1.6v2.497c0 1.729.128 1.857 1.6 1.953v.448h-4.706v-.448c1.185-.096 1.312-.224 1.312-1.953v-5.603c0-1.728-.128-1.856-1.312-1.953v-.447z"/><path d="m169.096 18.455c.031.256.096 1.44.191 2.369l-.48.064c-.16-.736-.352-1.186-.592-1.426-.272-.272-.785-.367-1.777-.367h-.832c-.608 0-.64 0-.64.576v3.553h1.601c1.376 0 1.409-.096 1.569-1.28h.512v3.282h-.512c-.16-1.201-.192-1.266-1.569-1.266h-1.601v2.497c0 1.729.128 1.858 1.601 1.953v.448h-4.706v-.448c1.185-.096 1.313-.224 1.313-1.953v-5.602c0-1.729-.128-1.855-1.313-1.952v-.448z"/><path d="m175.206 18.455v.448c-1.217.097-1.345.224-1.345 1.952v5.602c0 1.729.128 1.858 1.345 1.953v.448h-4.515v-.448c1.249-.096 1.377-.224 1.377-1.953v-5.602c0-1.729-.128-1.855-1.377-1.952v-.448z"/><path d="m181.254 18.455v.448c-1.281.097-1.408.224-1.408 1.952v5.571c0 .928.096 1.376.367 1.568.273.192.801.224 1.312.224.736 0 1.505-.064 1.842-.464.271-.304.527-.849.783-1.616l.513.096c-.096.512-.448 2.144-.576 2.625h-7.507v-.448c1.344-.096 1.473-.224 1.473-1.953v-5.602c0-1.729-.129-1.855-1.408-1.952v-.448h4.609z"/><path d="m188.645 18.455 3.537 7.635 3.346-7.635h3.025v.448c-1.297.128-1.36.192-1.328 1.952l.16 5.602c.048 1.793.096 1.825 1.393 1.953v.448h-4.467v-.448c1.249-.128 1.297-.16 1.281-1.953l-.064-6.145h-.063l-3.634 8.354h-.481l-3.505-8.035h-.063l-.113 4.146c-.031 1.441-.016 2.321.049 2.802.064.608.4.736 1.457.832v.448h-3.795v-.448c.801-.064 1.121-.224 1.233-.832.079-.48.208-1.425.288-2.962l.176-3.297c.112-2.129 0-2.289-1.377-2.417v-.448z"/><path d="m208.664 18.263 1.105 2.977c.72 1.953 1.424 3.938 2.033 5.538.543 1.425.768 1.537 1.695 1.633v.448h-4.209v-.448l.448-.064c.608-.097.64-.257.448-.865-.16-.479-.545-1.473-.881-2.305h-2.961c-.208.48-.496 1.377-.721 2.049-.287.849-.16 1.057.545 1.137l.447.048v.448h-3.553v-.448c.992-.128 1.168-.192 1.729-1.633l3.233-8.323zm-2.144 6.178h2.545l-1.248-3.521h-.048z"/><path d="m216.695 18.455 6.387 7.523h.032v-3.041c0-1.825-.08-2.722-.144-3.201-.08-.576-.529-.77-1.553-.833v-.448h3.905v.448c-.8.032-1.217.257-1.297.833-.064.479-.144 1.376-.144 3.201v6.05h-.736l-6.595-8.067h-.032v3.457c0 1.825.08 2.722.145 3.202.08.576.527.769 1.553.832v.448h-3.906v-.448c.801-.032 1.217-.256 1.297-.832.064-.48.145-1.377.145-3.202v-3.137c0-1.857-.354-2.24-1.666-2.337v-.448z"/><path d="m231.32 18.455c1.793 0 3.426.385 4.482 1.408.736.736 1.344 1.922 1.344 3.33 0 3.938-3.041 5.666-6.786 5.666h-3.922v-.448c1.312-.096 1.44-.224 1.44-1.953v-5.602c0-1.729-.128-1.855-1.312-1.952v-.448h4.754zm-1.648 7.971c0 1.473.16 1.776 1.393 1.776 2.657 0 4.033-1.873 4.033-4.529 0-3.426-1.728-4.61-4.289-4.61-.528 0-.945.063-1.041.144-.096.08-.096.369-.096.785z"/><path d="m245.56 18.455 3.537 7.635 3.346-7.635h3.024v.448c-1.296.128-1.359.192-1.328 1.952l.16 5.602c.049 1.793.096 1.825 1.393 1.953v.448h-4.466v-.448c1.249-.128 1.297-.16 1.28-1.953l-.063-6.145h-.064l-3.635 8.354h-.479l-3.505-8.035h-.064l-.112 4.146c-.032 1.441-.017 2.321.048 2.802.064.608.4.736 1.457.832v.448h-3.794v-.448c.8-.064 1.12-.224 1.233-.832.079-.48.207-1.425.287-2.962l.176-3.297c.113-2.129 0-2.289-1.376-2.417v-.448z"/><path d="m264.281 18.455c.032.256.096 1.44.191 2.434l-.479.031c-.16-.767-.353-1.217-.593-1.457-.271-.272-.783-.367-1.776-.367h-.8c-.608 0-.641 0-.641.576v3.393h1.377c1.376 0 1.408-.096 1.568-1.328h.512v3.394h-.512c-.16-1.265-.192-1.329-1.568-1.329h-1.377v2.626c0 .928.065 1.376.352 1.584.289.192.865.208 1.537.208.801 0 1.537-.064 1.873-.464.272-.304.544-.849.816-1.616l.48.096c-.064.544-.416 2.177-.545 2.625h-7.811v-.448c1.376-.096 1.504-.224 1.504-1.953v-5.602c0-1.729-.128-1.855-1.344-1.952v-.448h7.236z"/><path d="m271.112 18.455c1.792 0 3.425.385 4.481 1.408.736.736 1.345 1.922 1.345 3.33 0 3.938-3.042 5.666-6.786 5.666h-3.922v-.448c1.312-.096 1.44-.224 1.44-1.953v-5.602c0-1.729-.128-1.855-1.314-1.952v-.448h4.756zm-1.649 7.971c0 1.473.16 1.776 1.393 1.776 2.658 0 4.034-1.873 4.034-4.529 0-3.426-1.728-4.61-4.29-4.61-.527 0-.944.063-1.04.144-.097.08-.097.369-.097.785z"/><path d="m282.984 18.455v.448c-1.217.097-1.346.224-1.346 1.952v5.602c0 1.729.129 1.858 1.346 1.953v.448h-4.515v-.448c1.249-.096 1.377-.224 1.377-1.953v-5.602c0-1.729-.128-1.855-1.377-1.952v-.448z"/><path d="m289.496 18.263 1.103 2.977c.721 1.953 1.426 3.938 2.033 5.538.545 1.425.769 1.537 1.697 1.633v.448h-4.21v-.448l.448-.064c.607-.097.641-.257.448-.865-.16-.479-.544-1.473-.88-2.305h-2.962c-.208.48-.496 1.377-.72 2.049-.289.849-.16 1.057.544 1.137l.448.048v.448h-3.554v-.448c.992-.128 1.169-.192 1.729-1.633l3.233-8.323zm-2.144 6.178h2.545l-1.249-3.521h-.048z"/><path d="m303.771 18.263 1.105 2.977c.72 1.953 1.424 3.938 2.032 5.538.545 1.425.769 1.537 1.697 1.633v.448h-4.21v-.448l.448-.064c.608-.097.641-.257.448-.865-.16-.479-.544-1.473-.881-2.305h-2.961c-.208.48-.496 1.377-.721 2.049-.288.849-.159 1.057.545 1.137l.448.048v.448h-3.554v-.448c.992-.128 1.169-.192 1.728-1.633l3.233-8.323zm-2.145 6.178h2.545l-1.248-3.521h-.048z"/><path d="m313.819 18.455c1.168 0 2 .128 2.641.545.624.416 1.057 1.088 1.057 2.032 0 1.345-.833 2.289-2.129 2.769.256.449.88 1.569 1.393 2.289.608.881 1.024 1.457 1.328 1.777.385.384.641.624 1.104.736l-.064.416-.673-.032c-1.744-.128-2.289-.576-2.913-1.473-.512-.736-1.04-1.761-1.505-2.593-.256-.448-.448-.608-.928-.608h-.513v2.144c0 1.729.128 1.858 1.345 1.953v.448h-4.514v-.448c1.28-.096 1.408-.224 1.408-1.953v-5.602c0-1.729-.128-1.855-1.345-1.952v-.448zm-1.201 5.314h.608c.641 0 1.089-.096 1.505-.416.64-.513.864-1.281.864-2.049 0-1.665-1.152-2.241-2.177-2.241-.769 0-.801.063-.801.576v4.13z"/><path d="m319.164 20.984c.064-1.057.16-2.113.192-2.945h.288c.224.385.384.416.832.416h6.595c.416 0 .512-.096.769-.416h.256c.032.672.096 1.889.192 2.913l-.481.032c-.16-.832-.352-1.248-.593-1.488-.272-.305-.784-.4-1.776-.4h-.832v7.362c0 1.729.128 1.858 1.601 1.953v.448h-4.93v-.448c1.408-.096 1.536-.224 1.536-1.953v-7.362h-.544c-1.377 0-1.793.191-2.049.48-.192.224-.385.64-.576 1.408z"/><path d="m335.168 20.904c-.288-.929-.784-2.049-2.129-2.049-1.056 0-1.632.768-1.632 1.681 0 .896.64 1.488 1.872 2.049l.416.192c1.249.559 2.401 1.408 2.401 3.073 0 1.904-1.488 3.249-3.649 3.249-.608 0-1.185-.128-1.601-.272-.448-.144-.736-.272-.929-.336-.128-.416-.32-1.505-.48-2.481l.48-.159c.32.832 1.185 2.608 2.833 2.608 1.041 0 1.681-.816 1.681-1.809 0-.896-.432-1.537-1.696-2.16l-.513-.257c-1.056-.544-2.4-1.393-2.4-2.961 0-1.681 1.265-3.058 3.409-3.058.433 0 1.009.064 1.457.225.256.096.48.128.672.208.064.56.16 1.265.32 2.161z"/></g><path d="m155.454 0v33.099" fill="none" stroke="#fff" stroke-miterlimit="10" stroke-width=".7"/><path d="m43.53 5.833c-.619-2.373-1.94-3.012-3.961-3.012-3.714 0-5.364 2.806-5.364 6.044 0 3.981 2.042 6.622 5.385 6.622 2.311 0 3.383-1.114 4.394-3.28l.516.063c-.268.887-.722 2.537-1.052 3.321-.577.144-2.434.578-3.878.578-5.22 0-7.406-3.548-7.406-6.829 0-4.25 3.28-7.2 7.798-7.2 1.754 0 3.136.413 3.713.536.165 1.135.248 2.042.372 3.115z" fill="#fff"/><path d="m59.045 8.371v-2.93c0-2.249-.165-2.393-1.815-2.517v-.474h5.446v.475c-1.733.124-1.898.269-1.898 2.517v7.427c0 2.248.165 2.393 1.857 2.517v.475h-5.57v-.475c1.815-.124 1.98-.268 1.98-2.517v-3.673h-7.159v3.672c0 2.248.165 2.393 1.857 2.517v.475h-5.446v-.475c1.692-.124 1.857-.268 1.857-2.517v-7.427c0-2.249-.165-2.393-1.939-2.517v-.474h5.446v.475c-1.609.124-1.774.269-1.774 2.517v2.929z" fill="#fff"/><path d="m74.376 15.385.66-.083c.763-.083.846-.31.64-.949-.145-.495-.743-2.104-1.32-3.59h-4.188c-.206.537-.743 2.146-1.032 3.012-.392 1.196-.206 1.465.722 1.547l.619.062v.475h-4.415v-.475c1.341-.144 1.506-.268 2.228-2.104l4.25-10.955.474-.186 1.465 3.919c.97 2.62 1.878 5.24 2.682 7.344.66 1.733.928 1.877 2.207 1.981v.475h-4.992zm-3.94-5.405h3.651l-1.815-5.075h-.042z" fill="#fff"/><path d="m86.343 12.868c0 2.248.165 2.393 2.166 2.517v.475h-5.756v-.475c1.692-.124 1.857-.268 1.857-2.517v-7.427c0-2.249-.165-2.393-1.753-2.517v-.474h5.219c1.382 0 2.558.227 3.424.867.805.578 1.32 1.527 1.32 2.826 0 2.538-2.042 3.899-4.022 4.147-.33.041-.681.041-.929.041l-1.526-.392zm0-3.548c.268.124.846.248 1.547.248 1.299 0 2.991-.681 2.991-3.363 0-2.249-1.176-3.156-3.301-3.156-.598 0-.887.041-1.052.103-.123.042-.186.145-.186.557v5.611z" fill="#fff"/><path d="m100.476 2.45 4.993 10.625 4.91-10.625h3.404v.475c-1.794.145-1.918.227-1.856 2.517l.165 7.427c.062 2.311.124 2.373 1.939 2.517v.475h-5.446v-.475c1.732-.144 1.794-.206 1.774-2.517l-.082-8.314h-.083l-5.054 11.078h-.516l-4.767-10.79h-.042l-.206 5.755c-.082 1.939-.082 3.074 0 3.713.103.764.598.97 1.939 1.073v.475h-4.848v-.475c1.155-.103 1.588-.309 1.732-1.073.124-.64.248-1.877.351-3.919l.227-4.333c.144-2.764 0-2.991-1.939-3.136v-.473z" fill="#fff"/><path d="m125.668 15.385.66-.083c.763-.083.846-.31.64-.949-.145-.495-.743-2.104-1.32-3.59h-4.188c-.206.537-.743 2.146-1.032 3.012-.392 1.196-.206 1.465.722 1.547l.619.062v.475h-4.415v-.475c1.341-.144 1.506-.268 2.228-2.104l4.25-10.955.474-.186 1.465 3.919c.97 2.62 1.878 5.24 2.682 7.344.66 1.733.928 1.877 2.207 1.981v.475h-4.992zm-3.94-5.405h3.651l-1.815-5.075h-.041z" fill="#fff"/><path d="m146.299 16.004h-.537l-8.952-10.872h-.041v5.261c0 2.166.082 3.28.165 3.919.103.722.66 1.011 2.022 1.073v.475h-4.951v-.475c1.135-.041 1.671-.351 1.774-1.073.082-.64.165-1.753.165-3.919v-4.478c0-1.485-.021-1.815-.392-2.289-.392-.495-.949-.64-1.815-.702v-.474h3.012l8.685 10.397h.042v-4.93c0-2.167-.083-3.28-.165-3.92-.103-.722-.66-1.011-2.022-1.073v-.474h4.951v.475c-1.134.041-1.671.351-1.774 1.073-.083.64-.165 1.753-.165 3.92v8.086z" fill="#fff"/><path d="m36.973 19.009v.396c-1.375.102-1.513.224-1.513 2.099v3.594c0 1.461.189 2.562.722 3.336.533.757 1.324 1.187 2.477 1.187 1.083 0 1.978-.465 2.528-1.29.567-.859.774-2.373.774-3.817v-.929c0-1.806-.069-2.752-.138-3.285-.086-.601-.55-.842-1.685-.893v-.396h4.127v.396c-.946.034-1.393.292-1.479.893-.069.533-.137 1.479-.137 3.285v1.152c0 1.995-.31 3.404-1.307 4.471-.739.791-1.977 1.238-3.181 1.238-.946 0-2.029-.224-2.82-.877-.912-.739-1.324-1.909-1.324-3.869v-4.195c0-1.875-.138-1.996-1.582-2.099v-.396h4.538z" fill="#fff"/><path d="m57.383 30.307h-.447l-7.463-9.062h-.035v4.386c0 1.805.069 2.733.138 3.267.086.602.55.843 1.685.895v.395h-4.127v-.395c.946-.034 1.393-.292 1.479-.895.069-.533.138-1.462.138-3.267v-3.732c0-1.238-.018-1.514-.327-1.908-.327-.413-.791-.533-1.513-.585v-.396h2.511l7.24 8.667h.035v-4.11c0-1.805-.069-2.734-.138-3.268-.086-.601-.55-.842-1.685-.893v-.396h4.126v.396c-.946.034-1.393.292-1.479.893-.069.533-.138 1.463-.138 3.268z" fill="#fff"/><path d="m64.999 27.694c0 1.874.138 1.994 1.548 2.098v.395h-4.54v-.395c1.41-.104 1.548-.224 1.548-2.098v-6.191c0-1.875-.138-1.996-1.548-2.099v-.396h4.54v.396c-1.41.102-1.548.224-1.548 2.099z" fill="#fff"/><path d="m74.61 30.29c-1.169-3.078-2.82-7.326-3.56-9.234-.55-1.428-.791-1.549-1.823-1.651v-.396h4.179v.396l-.55.069c-.636.086-.739.258-.55.791.447 1.272 1.772 4.66 3.027 7.875.894-2.373 2.373-6.276 2.752-7.394.327-.981.155-1.203-.619-1.289l-.516-.052v-.396h3.766v.396c-1.152.12-1.307.241-1.943 1.754-.223.533-2.356 5.641-3.646 9.132h-.517z" fill="#fff"/><path d="m84.943 21.503c0-1.875-.138-1.996-1.514-2.099v-.396h7.532c.017.293.103 1.548.189 2.511l-.43.052c-.172-.86-.361-1.307-.619-1.582-.275-.293-.843-.413-1.892-.413h-1.307c-.481 0-.516.034-.516.533v3.921h1.737c1.479 0 1.531-.104 1.703-1.376h.43v3.405h-.43c-.086-.637-.138-.98-.361-1.17-.224-.189-.602-.223-1.341-.223h-1.737v3.043c0 .98.103 1.496.43 1.703.327.206.946.206 1.754.206.98 0 1.788-.086 2.166-.499.293-.31.567-.894.826-1.686l.43.052c-.086.482-.464 2.236-.602 2.7h-8.134v-.395c1.548-.104 1.686-.224 1.686-2.098z" fill="#fff"/><path d="m97.976 27.694c0 1.874.138 1.994 1.548 2.098v.395h-4.575v-.395c1.445-.104 1.583-.224 1.583-2.098v-6.191c0-1.875-.138-1.996-1.514-2.099v-.396h4.368c1.101 0 2.08.154 2.717.584.688.431 1.135 1.205 1.135 2.201 0 1.428-.877 2.442-2.27 3.01.31.516 1.015 1.703 1.53 2.459.619.912.98 1.376 1.445 1.892.361.431.67.705 1.289.86l-.034.326h-.241c-1.978-.051-2.58-.653-3.233-1.599-.533-.774-1.255-2.047-1.737-2.854-.275-.447-.55-.619-1.083-.619h-.929v2.426zm0-2.924h.998c.705 0 1.255-.086 1.72-.464.739-.585.997-1.428.997-2.271 0-1.806-1.307-2.528-2.597-2.528-.584 0-.825.035-.963.086-.103.035-.155.121-.155.465z" fill="#fff"/><path d="m108.24 27.161c.275.808 1.152 2.717 2.975 2.717 1.307 0 2.132-.877 2.132-2.219 0-1.461-1.118-2.063-2.218-2.597-.567-.275-2.889-1.083-2.889-3.147 0-1.703 1.29-3.164 3.542-3.164.481 0 1.066.104 1.427.223.224.069.464.155.654.19.069.601.172 1.29.31 2.322l-.43.051c-.293-1.014-.774-2.218-2.339-2.218-1.221 0-1.857.894-1.857 1.909 0 1.272.911 1.84 2.218 2.424 1.135.499 2.94 1.204 2.94 3.337 0 1.994-1.633 3.456-3.817 3.456-.619 0-1.204-.12-1.634-.258s-.739-.275-.946-.361c-.138-.447-.327-1.668-.498-2.597z" fill="#fff"/><path d="m120.981 27.694c0 1.874.138 1.994 1.548 2.098v.395h-4.54v-.395c1.41-.104 1.548-.224 1.548-2.098v-6.191c0-1.875-.138-1.996-1.548-2.099v-.396h4.54v.396c-1.41.102-1.548.224-1.548 2.099z" fill="#fff"/><path d="m131.16 27.694c0 1.874.137 1.994 1.823 2.098v.395h-5.021v-.395c1.617-.104 1.754-.224 1.754-2.098v-8.117h-.808c-1.53 0-1.995.224-2.253.55-.189.241-.396.723-.602 1.479h-.43c.069-1.049.172-2.149.207-3.026h.241c.258.394.43.43.894.43h7.051c.447 0 .533-.104.808-.43h.241c.018.723.104 1.977.189 2.975l-.43.052c-.172-.825-.361-1.308-.619-1.582-.292-.327-.825-.447-1.892-.447h-1.152v8.116z" fill="#fff"/><path d="m143.505 27.694c0 1.874.138 1.994 1.789 2.098v.395h-4.953v-.395c1.582-.104 1.72-.224 1.72-2.098v-1.961c0-.31-.052-.464-.378-1.032-.774-1.341-1.445-2.579-2.184-3.852-.739-1.272-.808-1.324-1.806-1.444v-.396h4.145v.396l-.791.102c-.43.069-.55.225-.258.758.774 1.443 1.565 2.871 2.408 4.281.722-1.375 1.496-2.785 2.132-4.195.292-.619.155-.791-.499-.86l-.688-.086v-.396h3.783v.396c-1.152.102-1.238.327-1.96 1.462-.774 1.203-1.427 2.391-2.167 3.766-.258.465-.292.568-.292.929v2.132z" fill="#fff"/><path d="m13.09 16.535-13.09 13.086v-13.086z" fill="#fff"/><path d="m0 15.695v-13.09l13.09 13.09z" fill="#fff"/><path d="m27.608 2.014-13.088 13.088v-13.088z" fill="#fff"/><path d="m13.682 15.102-13.09-13.088h13.09z" fill="#fff"/><path d="m15.112 15.695 13.089-13.09v13.09z" fill="#fff"/><path d="m28.201 16.535v13.086l-13.089-13.086z" fill="#fff"/><path d="m13.682 17.125-13.09 13.087h13.09z" fill="#fff"/><path d="m14.52 17.125v13.087h13.087z" fill="#fff"/></svg>