<svg height="11" viewBox="0 0 11 11" width="11" xmlns="http://www.w3.org/2000/svg"><path d="m10.65625 10.3125h-2.40625v-.34375h-.34375v.34375h-3.4375v-.34375h-.34375v.34375h-2.40625v-.34375h-.34375v.34375h-.6875v-3.09375h.34375v-.34375h-.34375v-2.40625h.34375v-.34375h-.34375v-2.40625h.34375v-.34375h-.34375v-1.375h-.6875v11h11v-1.03125h-.34375zm-5.9296875-6.1015625-.171875.171875v2.70829883l.171875-.171875zm-.34375.34375-.171875.171875v2.70829883l.171875-.171875zm-.34375 3.05204883v-2.83720508l-.171875-.0859375v2.86100977l.15599805.07800976zm1.71875-4.42704883-.171875.171875v2.70829883l.171875-.171875zm-.6875.6875-.171875.171875v2.70829883l.171875-.171875zm-1.375.73046875-.171875-.0859375v2.86100977l.171875.0859375zm1.71875-1.07421875-.171875.171875v2.70829883l.171875-.171875zm-2.75.55859375-.171875-.0859375v2.86100977l.171875.0859375zm-.6875-.34375-.171875-.0859375v2.86100977l.171875.0859375zm1.375.6875-.171875-.0859375v2.86100977l.171875.0859375zm-1.03125-.515625-.171875-.0859375v2.86100977l.171875.0859375zm-.6875-.34375-.171875-.0859375v2.86100977l.171875.0859375zm4.46875-.73046875-.171875.171875v2.70829883l.171875-.171875zm-3.09375 1.41796875-.171875-.0859375v2.86100977l.171875.0859375zm5.84375-.73046875-.171875.171875v3.6680918l.171875-.2578125zm.34375-.34375-.171875.171875v3.4962168l.171875-.2578125zm.34375-.34375-.171875.171875v3.3243418l.171875-.2578125zm.6875-.6875-.171875.171875v2.9805918l.171875-.2578125zm-.34375.34375-.171875.171875v3.1524668l.171875-.2578125zm1.03125-1.03125-.171875.171875v2.6368418l.171875-.2578125zm-.34375.34375-.171875.171875v2.8087168l.171875-.2578125zm-3.09375 1.8046875-.171875-.11457617v3.32292383l.171875.22915234zm-.34375-.22917383-.171875-.11457617v3.09375l.171875.22917383zm-.6875-.45832617-.171875-.11457617v2.63540234l.171875.22917383zm.34375.22917383-.171875-.11459766v2.86459766l.171875.22917383zm1.03125.6875-.171875-.11459766v3.55209766l.171875.22917383zm.6875.02863867-.171875.171875v3.83994531l.171875-.25779101zm-.34375.20051367-.171875-.11457617v3.78127148l.171875.22915235zm.0859375 4.86979883-2.0625-2.75-2.0625 2.0625-2.75-1.375v2.75h9.625v-4.8125z" fill="#fff" fill-rule="evenodd" transform=""/></svg>