<?xml version="1.0" encoding="UTF-8" standalone="no"?>
<svg width="16px" height="16px" viewBox="0 0 16 16" version="1.1" xmlns="http://www.w3.org/2000/svg" xmlns:xlink="http://www.w3.org/1999/xlink" xmlns:sketch="http://www.bohemiancoding.com/sketch/ns">
    <!-- Generator: Sketch 3.4.1 (15681) - http://www.bohemiancoding.com/sketch -->
    <title>smiley</title>
    <desc>Created with Sketch.</desc>
    <defs></defs>
    <g id="Slides" stroke="none" stroke-width="1" fill="none" fill-rule="evenodd" sketch:type="MSPage">
        <g id="Signs--::--Index" sketch:type="MSArtboardGroup" transform="translate(-1070.000000, -109.000000)" fill="#FFFFFF">
            <g id="smiley" sketch:type="MSLayerGroup" transform="translate(1070.000000, 109.000000)">
                <g id="Group" sketch:type="MSShapeGroup">
                    <path d="M8,16 C12.4182812,16 16,12.4182812 16,8 C16,3.58171875 12.4182812,0 8,0 C3.58171875,0 0,3.58171875 0,8 C0,12.4182812 3.58171875,16 8,16 L8,16 Z M8,1.5 C11.5898438,1.5 14.5,4.41015625 14.5,8 C14.5,11.5898438 11.5898438,14.5 8,14.5 C4.41015625,14.5 1.5,11.5898438 1.5,8 C1.5,4.41015625 4.41015625,1.5 8,1.5 L8,1.5 Z M4,5 C4,4.44771875 4.44771875,4 5,4 C5.55228125,4 6,4.44771875 6,5 C6,5.55228125 5.55228125,6 5,6 C4.44771875,6 4,5.55228125 4,5 L4,5 Z M10,5 C10,4.44771875 10.4477187,4 11,4 C11.5522813,4 12,4.44771875 12,5 C12,5.55228125 11.5522813,6 11,6 C10.4477187,6 10,5.55228125 10,5 L10,5 Z M11.0015312,9.8009375 L12.2879063,10.57275 C11.4135,12.0269687 9.82046875,13 8,13 C6.17953125,13 4.5865,12.0269687 3.71209375,10.57275 L4.99846875,9.8009375 C5.6105625,10.818875 6.7256875,11.5 8,11.5 C9.2743125,11.5 10.3894375,10.818875 11.0015312,9.8009375 L11.0015312,9.8009375 Z" id="Shape"></path>
                </g>
            </g>
        </g>
    </g>
</svg>