<svg height="16" viewBox="0 0 16 16" width="16" xmlns="http://www.w3.org/2000/svg"><path d="m8 16c4.4182812 0 8-3.5817188 8-8 0-4.41828125-3.5817188-8-8-8-4.41828125 0-8 3.58171875-8 8 0 4.4182812 3.58171875 8 8 8zm0-14.5c3.5898438 0 6.5 2.91015625 6.5 6.5 0 3.5898438-2.9101562 6.5-6.5 6.5-3.58984375 0-6.5-2.9101562-6.5-6.5 0-3.58984375 2.91015625-6.5 6.5-6.5zm-4 3.5c0-.55228125.44771875-1 1-1s1 .44771875 1 1-.44771875 1-1 1-1-.44771875-1-1zm6 0c0-.55228125.4477187-1 1-1s1 .44771875 1 1-.4477187 1-1 1-1-.44771875-1-1zm1.0015312 4.8009375 1.2863751.7718125c-.8744063 1.4542187-2.46743755 2.42725-4.2879063 2.42725s-3.4135-.9730313-4.28790625-2.42725l1.286375-.7718125c.61209375 1.0179375 1.72721875 1.6990625 3.00153125 1.6990625s2.3894375-.681125 3.0015312-1.6990625z" fill="#fff" fill-rule="evenodd" transform=""/></svg>