<svg xmlns="http://www.w3.org/2000/svg" viewBox="0 0 84.5 84.5">
	<path fill="#FFF" d="M41.7 5c-21.4 0-38.8 17.3-38.8 38.8s17.4 38.8 38.8 38.8 38.8-17.4 38.8-38.8-17.3-38.8-38.8-38.8zm0 8.6c4.6 0 8.3 3.7 8.3 8.3 0 4.6-3.7 8.3-8.3 8.3-4.6 0-8.3-3.7-8.3-8.3.1-4.6 3.8-8.3 8.3-8.3zm-30 22.8c0-4.6 3.7-8.3 8.3-8.3 4.6 0 8.3 3.7 8.3 8.3 0 4.6-3.7 8.3-8.3 8.3s-8.3-3.7-8.3-8.3zm16.9 32.6c-4.6 0-8.3-3.7-8.3-8.3 0-4.6 3.7-8.3 8.3-8.3 4.6 0 8.3 3.7 8.3 8.3s-3.7 8.3-8.3 8.3zm13.1-20.4c-2.7 0-4.9-2.2-4.9-4.8s2.2-4.9 4.9-4.9 4.8 2.2 4.8 4.9-2.1 4.8-4.8 4.8zm13.2 20.5c-4.6 0-8.3-3.7-8.3-8.3 0-4.6 3.7-8.3 8.3-8.3 4.6 0 8.3 3.7 8.3 8.3 0 4.6-3.7 8.3-8.3 8.3zm8.6-24.4c-4.6 0-8.3-3.7-8.3-8.3 0-4.6 3.7-8.3 8.3-8.3 4.6 0 8.3 3.7 8.3 8.3 0 4.6-3.7 8.3-8.3 8.3z"/>
</svg>